<?xml version="1.0" encoding="utf-8"?>
<svg id="master-artboard" viewBox="0 0 1750 980" version="1.1" xmlns="http://www.w3.org/2000/svg" x="0px" y="0px" width="1750px" height="980px" enable-background="new 0 0 1750 980"><rect id="ee-background" x="0" y="0" width="1750" height="980" style="fill: white; fill-opacity: 0; pointer-events: none;"/>
<radialGradient id="SVGID_1_" cx="875" cy="490" r="871.9702" gradientUnits="userSpaceOnUse">
	<stop offset="0" style="stop-color:#33619E"/>
	<stop offset="1" style="stop-color:#283659"/>
</radialGradient>
<path d="M 0 0 H 1750 V 980 H 0 V 0 Z" fill-rule="evenodd" clip-rule="evenodd" fill="url(#SVGID_1_)" style="fill: rgb(75, 175, 149);"/>
<g>
	<linearGradient id="SVGID_2_" gradientUnits="userSpaceOnUse" x1="1140.2125" y1="308.935" x2="1140.2125" y2="26.9913">
		<stop offset="0" style="stop-color:#3A7AAC"/>
		<stop offset="1" style="stop-color:#335281"/>
	</linearGradient>
	<path fill-rule="evenodd" clip-rule="evenodd" fill="url(#SVGID_2_)" d="M1750,0H530.4c19.8,32.7,83.8,49,107.8,46.3&#10;&#9;&#9;c28.6,99.8,164.8,113.1,213,22.2c39.8,21.5,89.9,9.1,115.2-28.7c18.8,11.4,40.4,17.1,62.4,16.7c7,122.4,176.2,149.5,222.1,36.8&#10;&#9;&#9;c63.2,20.8,132.9-0.5,173.9-53.3c25.6,27.6,60.9,46,100.5,49.8c31.3,58.5,95.3,90.9,160.8,81.8c15.5,21.1,37.9,36.7,64,43.5V0z" style="fill: rgb(255, 255, 255);"/>
	<linearGradient id="SVGID_3_" gradientUnits="userSpaceOnUse" x1="569.24" y1="180.775" x2="569.24" y2="-51.0033">
		<stop offset="0" style="stop-color:#3A7AAC"/>
		<stop offset="1" style="stop-color:#335281"/>
	</linearGradient>
	<path fill-rule="evenodd" clip-rule="evenodd" fill="url(#SVGID_3_)" d="M0,0h1138.5c-16.9,13.2-38.8,20.1-62.1,17.5&#10;&#9;&#9;c-27.7,96.6-159.5,109.5-206.2,21.4c-38.5,20.8-87,8.9-111.5-27.8c-18.3,11.1-39.1,16.6-60.4,16.1&#10;&#9;&#9;C691.5,145.7,527.7,172,483.2,62.9C422.1,83,354.5,62.4,314.9,11.3c-24.8,26.7-59,44.5-97.3,48.2c-30.3,56.6-92.3,88-155.6,79.3&#10;&#9;&#9;c-15,20.4-36.8,35.5-62,42.1V0z" style="fill: rgb(255, 255, 255);"/>
<path d="M 1700.6536865234375 72.46166229248047" style="fill: rgb(255, 255, 255); fill-opacity: 1; stroke: rgb(0, 0, 0); stroke-opacity: 1; stroke-width: 0; paint-order: fill;"/></g>
<g>
	<linearGradient id="SVGID_4_" gradientUnits="userSpaceOnUse" x1="984.235" y1="642.3025" x2="1121.505" y2="642.3025">
		<stop offset="0" style="stop-color:#FFFFFF"/>
		<stop offset="1" style="stop-color:#BFCDD9"/>
	</linearGradient>
	<path d="M 984.200012 602.700012 H 1121.500015 V 682.000015 H 984.200012 V 602.700012 Z" fill-rule="evenodd" clip-rule="evenodd" fill="url(#SVGID_4_)"/>
	<linearGradient id="SVGID_5_" gradientUnits="userSpaceOnUse" x1="972.465" y1="642.3025" x2="1156.0001" y2="642.3025">
		<stop offset="0" style="stop-color:#FFFFFF"/>
		<stop offset="1" style="stop-color:#BFCDD9"/>
	</linearGradient>
	<path d="M 1004.5 602.700012 H 1101.300003 V 682.000015 H 1004.5 V 602.700012 Z" fill-rule="evenodd" clip-rule="evenodd" fill="url(#SVGID_5_)"/>
	<linearGradient id="SVGID_6_" gradientUnits="userSpaceOnUse" x1="1052.87" y1="681.94" x2="1052.87" y2="602.665">
		<stop offset="0" style="stop-color:#FFFFFF"/>
		<stop offset="1" style="stop-color:#BFCDD9"/>
	</linearGradient>
	<path d="M 1035.5 602.700012 H 1070.200001 V 682.000015 H 1035.5 V 602.700012 Z" fill-rule="evenodd" clip-rule="evenodd" fill="url(#SVGID_6_)"/>
	<linearGradient id="SVGID_7_" gradientUnits="userSpaceOnUse" x1="1052.87" y1="681.94" x2="1052.87" y2="631.3649">
		<stop offset="0" style="stop-color:#C2CFDB"/>
		<stop offset="1" style="stop-color:#586A78"/>
	</linearGradient>
	<path fill-rule="evenodd" clip-rule="evenodd" fill="url(#SVGID_7_)" d="M1046.3,681.9h13.1v-30.1c6.4-6.6,2.7-13.9-6.5-20.5&#10;&#9;&#9;c-9.3,6.6-12.9,13.9-6.5,20.5V681.9z"/>
	<linearGradient id="SVGID_8_" gradientUnits="userSpaceOnUse" x1="1052.87" y1="351.26" x2="1052.87" y2="602.665">
		<stop offset="0" style="stop-color:#FFFFFF"/>
		<stop offset="1" style="stop-color:#BFCDD9"/>
	</linearGradient>
	<path fill-rule="evenodd" clip-rule="evenodd" fill="url(#SVGID_8_)" d="M995.6,602.7h114.5v-12.7c55.3-48.5,25-101.4-53.8-150&#10;&#9;&#9;c3.2-1.4,5.4-4.5,5.4-8.2c0-4-2.6-7.4-6.3-8.5l-0.2-4.4c1.8-0.9,2.9-2.7,2.9-4.8c0-2.2-1.4-4.2-3.4-4.9l-0.6-12.5&#10;&#9;&#9;c1.3-0.5,2.3-1.8,2.3-3.3c0-1.6-1.1-3-2.6-3.5l-0.7-13.2c6.9-0.2,12.4-5.8,12.4-12.8c0-7.1-5.7-12.8-12.8-12.8&#10;&#9;&#9;c-7.1,0-12.8,5.7-12.8,12.8c0,6.9,5.5,12.6,12.4,12.8l-0.7,13.2c-1.5,0.4-2.6,1.8-2.6,3.5c0,1.5,0.9,2.8,2.3,3.3l-0.6,12.5&#10;&#9;&#9;c-2,0.8-3.4,2.7-3.4,4.9c0,2.1,1.2,3.9,2.9,4.8l-0.2,4.4c-3.6,1.1-6.3,4.5-6.3,8.5c0,3.6,2.2,6.8,5.4,8.2&#10;&#9;&#9;c-78.7,48.6-109,101.5-53.8,150V602.7z M1052.9,353.9c5.6,0,10.2,4.5,10.2,10.2c0,5.6-4.6,10.2-10.2,10.2s-10.2-4.6-10.2-10.2&#10;&#9;&#9;C1042.7,358.4,1047.2,353.9,1052.9,353.9L1052.9,353.9z"/>
	<linearGradient id="SVGID_9_" gradientUnits="userSpaceOnUse" x1="1052.87" y1="602.665" x2="1052.87" y2="631.3247">
		<stop offset="0" style="stop-color:#FFFFFF"/>
		<stop offset="1" style="stop-color:#BFCDD9"/>
	</linearGradient>
	<path d="M 976.799988 602.700012 H 1128.799988 V 620.100012 H 976.799988 V 602.700012 Z" fill-rule="evenodd" clip-rule="evenodd" fill="url(#SVGID_9_)"/>
	<linearGradient id="SVGID_10_" gradientUnits="userSpaceOnUse" x1="1019.9778" y1="681.94" x2="1019.9778" y2="631.3649">
		<stop offset="0" style="stop-color:#C2CFDB"/>
		<stop offset="1" style="stop-color:#586A78"/>
	</linearGradient>
	<path fill-rule="evenodd" clip-rule="evenodd" fill="url(#SVGID_10_)" d="M1014.5,681.9h10.9v-30.1c5.4-6.6,2.3-13.9-5.5-20.5&#10;&#9;&#9;c-7.8,6.6-10.8,13.9-5.5,20.5V681.9z"/>
	<linearGradient id="SVGID_11_" gradientUnits="userSpaceOnUse" x1="995.1382" y1="681.94" x2="995.1382" y2="631.3649">
		<stop offset="0" style="stop-color:#C2CFDB"/>
		<stop offset="1" style="stop-color:#586A78"/>
	</linearGradient>
	<path fill-rule="evenodd" clip-rule="evenodd" fill="url(#SVGID_11_)" d="M991.2,681.9h7.9v-30.1c3.9-6.6,1.6-13.9-3.9-20.5&#10;&#9;&#9;c-5.6,6.6-7.8,13.9-4,20.5V681.9z"/>
	<linearGradient id="SVGID_12_" gradientUnits="userSpaceOnUse" x1="1085.77" y1="681.94" x2="1085.77" y2="631.3649">
		<stop offset="0" style="stop-color:#C2CFDB"/>
		<stop offset="1" style="stop-color:#586A78"/>
	</linearGradient>
	<path fill-rule="evenodd" clip-rule="evenodd" fill="url(#SVGID_12_)" d="M1091.2,681.9h-10.9v-30.1c-5.4-6.6-2.3-13.9,5.5-20.5&#10;&#9;&#9;c7.8,6.6,10.8,13.9,5.5,20.5V681.9z"/>
	<linearGradient id="SVGID_13_" gradientUnits="userSpaceOnUse" x1="1110.6018" y1="681.94" x2="1110.6018" y2="631.3649">
		<stop offset="0" style="stop-color:#C2CFDB"/>
		<stop offset="1" style="stop-color:#586A78"/>
	</linearGradient>
	<path fill-rule="evenodd" clip-rule="evenodd" fill="url(#SVGID_13_)" d="M1114.5,681.9h-7.9v-30.1c-3.9-6.6-1.6-13.9,3.9-20.5&#10;&#9;&#9;c5.6,6.6,7.8,13.9,4,20.5V681.9z"/>
</g>
<g>
	<linearGradient id="SVGID_14_" gradientUnits="userSpaceOnUse" x1="628.495" y1="642.3025" x2="765.765" y2="642.3025">
		<stop offset="0" style="stop-color:#FFFFFF"/>
		<stop offset="1" style="stop-color:#BFCDD9"/>
	</linearGradient>
	<path d="M 628.5 602.700012 H 765.800003 V 682.000015 H 628.5 V 602.700012 Z" fill-rule="evenodd" clip-rule="evenodd" fill="url(#SVGID_14_)"/>
	<linearGradient id="SVGID_15_" gradientUnits="userSpaceOnUse" x1="630.725" y1="642.3025" x2="792.0015" y2="642.3025">
		<stop offset="0" style="stop-color:#FFFFFF"/>
		<stop offset="1" style="stop-color:#BFCDD9"/>
	</linearGradient>
	<path d="M 648.700012 602.700012 H 745.500015 V 682.000015 H 648.700012 V 602.700012 Z" fill-rule="evenodd" clip-rule="evenodd" fill="url(#SVGID_15_)"/>
	<linearGradient id="SVGID_16_" gradientUnits="userSpaceOnUse" x1="697.1475" y1="681.94" x2="697.1475" y2="602.665">
		<stop offset="0" style="stop-color:#FFFFFF"/>
		<stop offset="1" style="stop-color:#BFCDD9"/>
	</linearGradient>
	<path d="M 679.799988 602.700012 H 714.599987 V 682.000015 H 679.799988 V 602.700012 Z" fill-rule="evenodd" clip-rule="evenodd" fill="url(#SVGID_16_)"/>
	<linearGradient id="SVGID_17_" gradientUnits="userSpaceOnUse" x1="697.1378" y1="681.94" x2="697.1378" y2="631.3649">
		<stop offset="0" style="stop-color:#C2CFDB"/>
		<stop offset="1" style="stop-color:#586A78"/>
	</linearGradient>
	<path fill-rule="evenodd" clip-rule="evenodd" fill="url(#SVGID_17_)" d="M690.6,681.9h13.1v-30.1c6.4-6.6,2.7-13.9-6.5-20.5&#10;&#9;&#9;c-9.3,6.6-12.9,13.9-6.5,20.5V681.9z"/>
	<linearGradient id="SVGID_18_" gradientUnits="userSpaceOnUse" x1="697.139" y1="351.26" x2="697.139" y2="602.665">
		<stop offset="0" style="stop-color:#FFFFFF"/>
		<stop offset="1" style="stop-color:#BFCDD9"/>
	</linearGradient>
	<path fill-rule="evenodd" clip-rule="evenodd" fill="url(#SVGID_18_)" d="M639.9,602.7h114.6v-12.7c55.2-48.5,24.9-101.4-53.8-150&#10;&#9;&#9;c3.1-1.4,5.4-4.5,5.4-8.2c0-4-2.6-7.4-6.3-8.5l-0.2-4.4c1.8-0.9,2.9-2.7,2.9-4.8c0-2.2-1.4-4.2-3.4-4.9l-0.6-12.5&#10;&#9;&#9;c1.3-0.5,2.3-1.8,2.3-3.3c0-1.6-1.1-3-2.6-3.5l-0.6-13.2c6.9-0.2,12.4-5.8,12.4-12.8c0-7.1-5.7-12.8-12.8-12.8&#10;&#9;&#9;c-7.1,0-12.8,5.7-12.8,12.8c0,6.9,5.5,12.6,12.4,12.8l-0.6,13.2c-1.5,0.4-2.6,1.8-2.6,3.5c0,1.5,0.9,2.8,2.2,3.3l-0.6,12.5&#10;&#9;&#9;c-2,0.8-3.4,2.7-3.4,4.9c0,2.1,1.2,3.9,2.9,4.8l-0.2,4.4c-3.6,1.1-6.3,4.5-6.3,8.5c0,3.6,2.2,6.8,5.4,8.2&#10;&#9;&#9;c-78.7,48.6-109,101.5-53.8,150V602.7z M697.1,353.9c5.6,0,10.2,4.5,10.2,10.2c0,5.6-4.6,10.2-10.2,10.2c-5.6,0-10.2-4.6-10.2-10.2&#10;&#9;&#9;C686.9,358.4,691.5,353.9,697.1,353.9L697.1,353.9z"/>
	<linearGradient id="SVGID_19_" gradientUnits="userSpaceOnUse" x1="697.13" y1="602.665" x2="697.13" y2="631.1905">
		<stop offset="0" style="stop-color:#FFFFFF"/>
		<stop offset="1" style="stop-color:#BFCDD9"/>
	</linearGradient>
	<path d="M 621.099976 602.700012 H 773.099976 V 620.100012 H 621.099976 V 602.700012 Z" fill-rule="evenodd" clip-rule="evenodd" fill="url(#SVGID_19_)"/>
	<linearGradient id="SVGID_20_" gradientUnits="userSpaceOnUse" x1="664.2427" y1="681.94" x2="664.2427" y2="631.3649">
		<stop offset="0" style="stop-color:#C2CFDB"/>
		<stop offset="1" style="stop-color:#586A78"/>
	</linearGradient>
	<path fill-rule="evenodd" clip-rule="evenodd" fill="url(#SVGID_20_)" d="M658.8,681.9h11v-30.1c5.4-6.6,2.3-13.9-5.5-20.5&#10;&#9;&#9;c-7.8,6.6-10.8,13.9-5.5,20.5V681.9z"/>
	<linearGradient id="SVGID_21_" gradientUnits="userSpaceOnUse" x1="639.4101" y1="681.94" x2="639.4101" y2="631.3649">
		<stop offset="0" style="stop-color:#C2CFDB"/>
		<stop offset="1" style="stop-color:#586A78"/>
	</linearGradient>
	<path fill-rule="evenodd" clip-rule="evenodd" fill="url(#SVGID_21_)" d="M635.5,681.9h7.9v-30.1c3.9-6.6,1.7-13.9-3.9-20.5&#10;&#9;&#9;c-5.6,6.6-7.8,13.9-4,20.5V681.9z"/>
	<linearGradient id="SVGID_22_" gradientUnits="userSpaceOnUse" x1="730.0378" y1="681.94" x2="730.0378" y2="631.3649">
		<stop offset="0" style="stop-color:#C2CFDB"/>
		<stop offset="1" style="stop-color:#586A78"/>
	</linearGradient>
	<path fill-rule="evenodd" clip-rule="evenodd" fill="url(#SVGID_22_)" d="M735.5,681.9h-10.9v-30.1c-5.4-6.6-2.3-13.9,5.5-20.5&#10;&#9;&#9;c7.8,6.6,10.8,13.9,5.5,20.5V681.9z"/>
	<linearGradient id="SVGID_23_" gradientUnits="userSpaceOnUse" x1="754.8751" y1="681.94" x2="754.8751" y2="631.3649">
		<stop offset="0" style="stop-color:#C2CFDB"/>
		<stop offset="1" style="stop-color:#586A78"/>
	</linearGradient>
	<path fill-rule="evenodd" clip-rule="evenodd" fill="url(#SVGID_23_)" d="M758.8,681.9h-7.9v-30.1c-3.9-6.6-1.6-13.9,4-20.5&#10;&#9;&#9;c5.6,6.6,7.8,13.9,3.9,20.5V681.9z"/>
</g>
<g>
	<linearGradient id="SVGID_24_" gradientUnits="userSpaceOnUse" x1="418.81" y1="614.3725" x2="538.6851" y2="614.3725">
		<stop offset="0" style="stop-color:#FFFFFF"/>
		<stop offset="1" style="stop-color:#BFCDD9"/>
	</linearGradient>
	<path d="M 418.799988 523.700012 H 538.699989 V 705.100006 H 418.799988 V 523.700012 Z" fill-rule="evenodd" clip-rule="evenodd" fill="url(#SVGID_24_)"/>
	<linearGradient id="SVGID_25_" gradientUnits="userSpaceOnUse" x1="478.7475" y1="705.075" x2="478.7475" y2="523.67">
		<stop offset="0" style="stop-color:#FFFFFF"/>
		<stop offset="1" style="stop-color:#BFCDD9"/>
	</linearGradient>
	<path d="M 447.299988 523.700012 H 510.099987 V 705.100006 H 447.299988 V 523.700012 Z" fill-rule="evenodd" clip-rule="evenodd" fill="url(#SVGID_25_)"/>
	<linearGradient id="SVGID_26_" gradientUnits="userSpaceOnUse" x1="478.7482" y1="705.075" x2="478.7482" y2="573.65">
		<stop offset="0" style="stop-color:#C2CFDB"/>
		<stop offset="1" style="stop-color:#586A78"/>
	</linearGradient>
	<path fill-rule="evenodd" clip-rule="evenodd" fill="url(#SVGID_26_)" d="M458.7,705.1h40v-78.3c19.6-17.2,8.4-36-20-53.2&#10;&#9;&#9;c-28.4,17.2-39.6,36-20,53.2V705.1z"/>
	<linearGradient id="SVGID_27_" gradientUnits="userSpaceOnUse" x1="478.7475" y1="304.08" x2="478.7475" y2="523.67">
		<stop offset="0" style="stop-color:#FFFFFF"/>
		<stop offset="1" style="stop-color:#BFCDD9"/>
	</linearGradient>
	<path fill-rule="evenodd" clip-rule="evenodd" fill="url(#SVGID_27_)" d="M428.7,523.7h100.1v-11.1c48.3-42.4,21.8-88.6-47-131&#10;&#9;&#9;c2.7-1.2,4.7-3.9,4.7-7.1c0-3.5-2.3-6.4-5.5-7.4l-0.2-3.8c1.5-0.7,2.6-2.3,2.6-4.1c0-2-1.2-3.7-2.9-4.3l-0.5-10.9&#10;&#9;&#9;c1.2-0.5,2-1.6,2-2.9c0-1.4-0.9-2.6-2.3-3l-0.5-11.5c6-0.2,10.9-5.1,10.9-11.2c0-6.2-5-11.2-11.2-11.2c-6.2,0-11.2,5-11.2,11.2&#10;&#9;&#9;c0,6.1,4.8,11,10.9,11.2l-0.5,11.5c-1.3,0.4-2.3,1.6-2.3,3c0,1.3,0.8,2.5,2,2.9l-0.5,10.9c-1.8,0.7-3,2.3-3,4.3&#10;&#9;&#9;c0,1.8,1,3.4,2.6,4.1l-0.2,3.8c-3.2,1-5.5,3.9-5.5,7.4c0,3.2,1.9,5.9,4.7,7.1c-68.7,42.5-95.2,88.7-47,131V523.7z M478.8,306.3&#10;&#9;&#9;c4.9,0,8.9,4,8.9,8.9c0,4.9-4,8.9-8.9,8.9c-4.9,0-9-4-9-8.9C469.8,310.3,473.8,306.3,478.8,306.3L478.8,306.3z"/>
	<linearGradient id="SVGID_28_" gradientUnits="userSpaceOnUse" x1="478.7475" y1="523.67" x2="478.7475" y2="548.8134">
		<stop offset="0" style="stop-color:#FFFFFF"/>
		<stop offset="1" style="stop-color:#BFCDD9"/>
	</linearGradient>
	<path d="M 412.399994 523.700012 H 545.199997 V 538.900012 H 412.399994 V 523.700012 Z" fill-rule="evenodd" clip-rule="evenodd" fill="url(#SVGID_28_)"/>
	<linearGradient id="SVGID_29_" gradientUnits="userSpaceOnUse" x1="432.1618" y1="705.075" x2="432.1618" y2="573.65">
		<stop offset="0" style="stop-color:#C2CFDB"/>
		<stop offset="1" style="stop-color:#586A78"/>
	</linearGradient>
	<path fill-rule="evenodd" clip-rule="evenodd" fill="url(#SVGID_29_)" d="M438.3,705.1H426v-78.3c-6-17.2-2.6-36,6.1-53.2&#10;&#9;&#9;c8.8,17.2,12.2,36,6.2,53.2V705.1z"/>
	<linearGradient id="SVGID_30_" gradientUnits="userSpaceOnUse" x1="525.3333" y1="705.075" x2="525.3333" y2="573.65">
		<stop offset="0" style="stop-color:#C2CFDB"/>
		<stop offset="1" style="stop-color:#586A78"/>
	</linearGradient>
	<path fill-rule="evenodd" clip-rule="evenodd" fill="url(#SVGID_30_)" d="M531.5,705.1h-12.3v-78.3c-6-17.2-2.6-36,6.2-53.2&#10;&#9;&#9;c8.7,17.2,12.1,36,6.1,53.2V705.1z"/>
</g>
<g>
	<linearGradient id="SVGID_31_" gradientUnits="userSpaceOnUse" x1="1211.3151" y1="614.3725" x2="1331.1901" y2="614.3725">
		<stop offset="0" style="stop-color:#FFFFFF"/>
		<stop offset="1" style="stop-color:#BFCDD9"/>
	</linearGradient>
	<path d="M 1211.300049 523.700012 H 1331.20005 V 705.100006 H 1211.300049 V 523.700012 Z" fill-rule="evenodd" clip-rule="evenodd" fill="url(#SVGID_31_)"/>
	<linearGradient id="SVGID_32_" gradientUnits="userSpaceOnUse" x1="1271.27" y1="705.075" x2="1271.27" y2="523.67">
		<stop offset="0" style="stop-color:#FFFFFF"/>
		<stop offset="1" style="stop-color:#BFCDD9"/>
	</linearGradient>
	<path d="M 1239.900024 523.700012 H 1302.700024 V 705.100006 H 1239.900024 V 523.700012 Z" fill-rule="evenodd" clip-rule="evenodd" fill="url(#SVGID_32_)"/>
	<linearGradient id="SVGID_33_" gradientUnits="userSpaceOnUse" x1="1271.2533" y1="705.075" x2="1271.2533" y2="573.65">
		<stop offset="0" style="stop-color:#C2CFDB"/>
		<stop offset="1" style="stop-color:#586A78"/>
	</linearGradient>
	<path fill-rule="evenodd" clip-rule="evenodd" fill="url(#SVGID_33_)" d="M1251.3,705.1h40v-78.3c19.6-17.2,8.4-36-20-53.2&#10;&#9;&#9;c-28.4,17.2-39.6,36-20,53.2V705.1z"/>
	<linearGradient id="SVGID_34_" gradientUnits="userSpaceOnUse" x1="1271.2611" y1="304.08" x2="1271.2611" y2="523.67">
		<stop offset="0" style="stop-color:#FFFFFF"/>
		<stop offset="1" style="stop-color:#BFCDD9"/>
	</linearGradient>
	<path fill-rule="evenodd" clip-rule="evenodd" fill="url(#SVGID_34_)" d="M1221.2,523.7h100.1v-11.1c48.3-42.4,21.8-88.6-47-131&#10;&#9;&#9;c2.8-1.2,4.7-3.9,4.7-7.1c0-3.5-2.3-6.4-5.5-7.4l-0.2-3.8c1.5-0.7,2.6-2.3,2.6-4.1c0-2-1.3-3.7-3-4.3l-0.5-10.9&#10;&#9;&#9;c1.2-0.5,2-1.6,2-2.9c0-1.4-0.9-2.6-2.2-3l-0.6-11.5c6-0.2,10.9-5.1,10.9-11.2c0-6.2-5-11.2-11.2-11.2c-6.2,0-11.2,5-11.2,11.2&#10;&#9;&#9;c0,6.1,4.8,11,10.8,11.2l-0.6,11.5c-1.3,0.4-2.3,1.6-2.3,3c0,1.3,0.8,2.5,2,2.9l-0.5,10.9c-1.7,0.7-3,2.3-3,4.3&#10;&#9;&#9;c0,1.8,1,3.4,2.6,4.1l-0.2,3.8c-3.2,1-5.5,3.9-5.5,7.4c0,3.2,1.9,5.9,4.7,7.1c-68.8,42.5-95.2,88.7-47,131V523.7z M1271.3,306.3&#10;&#9;&#9;c4.9,0,8.9,4,8.9,8.9c0,4.9-4,8.9-8.9,8.9c-4.9,0-8.9-4-8.9-8.9C1262.3,310.3,1266.3,306.3,1271.3,306.3L1271.3,306.3z"/>
	<linearGradient id="SVGID_35_" gradientUnits="userSpaceOnUse" x1="1271.27" y1="523.67" x2="1271.27" y2="553.4">
		<stop offset="0" style="stop-color:#FFFFFF"/>
		<stop offset="1" style="stop-color:#BFCDD9"/>
	</linearGradient>
	<path d="M 1204.900024 523.700012 H 1337.700027 V 538.900012 H 1204.900024 V 523.700012 Z" fill-rule="evenodd" clip-rule="evenodd" fill="url(#SVGID_35_)"/>
	<linearGradient id="SVGID_36_" gradientUnits="userSpaceOnUse" x1="1224.6669" y1="705.075" x2="1224.6669" y2="573.65">
		<stop offset="0" style="stop-color:#C2CFDB"/>
		<stop offset="1" style="stop-color:#586A78"/>
	</linearGradient>
	<path fill-rule="evenodd" clip-rule="evenodd" fill="url(#SVGID_36_)" d="M1230.8,705.1h-12.3v-78.3c-6-17.2-2.6-36,6.1-53.2&#10;&#9;&#9;c8.8,17.2,12.2,36,6.2,53.2V705.1z"/>
	<linearGradient id="SVGID_37_" gradientUnits="userSpaceOnUse" x1="1317.851" y1="705.075" x2="1317.851" y2="573.65">
		<stop offset="0" style="stop-color:#C2CFDB"/>
		<stop offset="1" style="stop-color:#586A78"/>
	</linearGradient>
	<path fill-rule="evenodd" clip-rule="evenodd" fill="url(#SVGID_37_)" d="M1324,705.1h-12.3v-78.3c-6-17.2-2.6-36,6.2-53.2&#10;&#9;&#9;c8.7,17.2,12.2,36,6.2,53.2V705.1z"/>
</g>
<g>
	<linearGradient id="SVGID_38_" gradientUnits="userSpaceOnUse" x1="555.8" y1="644.105" x2="605.815" y2="644.105">
		<stop offset="0" style="stop-color:#FFFFFF"/>
		<stop offset="1" style="stop-color:#BFCDD9"/>
	</linearGradient>
	<path d="M 555.799988 606.299988 H 605.799988 V 681.999985 H 555.799988 V 606.299988 Z" fill-rule="evenodd" clip-rule="evenodd" fill="url(#SVGID_38_)"/>
	<linearGradient id="SVGID_39_" gradientUnits="userSpaceOnUse" x1="580.8075" y1="681.94" x2="580.8075" y2="606.27">
		<stop offset="0" style="stop-color:#FFFFFF"/>
		<stop offset="1" style="stop-color:#BFCDD9"/>
	</linearGradient>
	<path d="M 567.700012 606.299988 H 593.900013 V 681.999985 H 567.700012 V 606.299988 Z" fill-rule="evenodd" clip-rule="evenodd" fill="url(#SVGID_39_)"/>
	<linearGradient id="SVGID_40_" gradientUnits="userSpaceOnUse" x1="580.816" y1="681.94" x2="580.816" y2="627.1299">
		<stop offset="0" style="stop-color:#C2CFDB"/>
		<stop offset="1" style="stop-color:#586A78"/>
	</linearGradient>
	<path fill-rule="evenodd" clip-rule="evenodd" fill="url(#SVGID_40_)" d="M572.5,681.9h16.7v-32.7c8.2-7.2,3.5-15-8.3-22.2&#10;&#9;&#9;c-11.9,7.2-16.5,15-8.4,22.2V681.9z"/>
	<linearGradient id="SVGID_41_" gradientUnits="userSpaceOnUse" x1="580.8123" y1="514.675" x2="580.8123" y2="606.27">
		<stop offset="0" style="stop-color:#FFFFFF"/>
		<stop offset="1" style="stop-color:#BFCDD9"/>
	</linearGradient>
	<path fill-rule="evenodd" clip-rule="evenodd" fill="url(#SVGID_41_)" d="M560,606.3h41.7v-4.6c20.1-17.7,9.1-37-19.6-54.7&#10;&#9;&#9;c1.2-0.5,2-1.6,2-3c0-1.4-0.9-2.7-2.3-3.1l-0.1-1.6c0.6-0.3,1-1,1-1.8c0-0.8-0.5-1.5-1.2-1.8l-0.2-4.5c0.5-0.2,0.8-0.7,0.8-1.2&#10;&#9;&#9;c0-0.6-0.4-1.1-0.9-1.3L581,524c2.5-0.1,4.5-2.1,4.5-4.7c0-2.6-2.1-4.7-4.7-4.7c-2.6,0-4.7,2.1-4.7,4.7c0,2.5,2,4.6,4.5,4.7&#10;&#9;&#9;l-0.2,4.8c-0.5,0.2-0.9,0.7-0.9,1.3c0,0.6,0.3,1,0.8,1.2l-0.2,4.5c-0.7,0.3-1.3,1-1.3,1.8c0,0.8,0.5,1.4,1.1,1.8l-0.1,1.6&#10;&#9;&#9;c-1.3,0.4-2.3,1.6-2.3,3.1c0,1.3,0.8,2.5,1.9,3c-28.7,17.7-39.7,37-19.6,54.7V606.3z M580.8,515.6c2,0,3.7,1.6,3.7,3.7&#10;&#9;&#9;s-1.7,3.7-3.7,3.7c-2.1,0-3.7-1.7-3.7-3.7S578.8,515.6,580.8,515.6L580.8,515.6z"/>
	<linearGradient id="SVGID_42_" gradientUnits="userSpaceOnUse" x1="580.8075" y1="613.7696" x2="580.8075" y2="631.1251">
		<stop offset="0" style="stop-color:#FFFFFF"/>
		<stop offset="1" style="stop-color:#BFCDD9"/>
	</linearGradient>
	<path d="M 553.099976 606.299988 H 608.499977 V 612.599988 H 553.099976 V 606.299988 Z" fill-rule="evenodd" clip-rule="evenodd" fill="url(#SVGID_42_)"/>
	<linearGradient id="SVGID_43_" gradientUnits="userSpaceOnUse" x1="561.3699" y1="681.94" x2="561.3699" y2="627.1299">
		<stop offset="0" style="stop-color:#C2CFDB"/>
		<stop offset="1" style="stop-color:#586A78"/>
	</linearGradient>
	<path fill-rule="evenodd" clip-rule="evenodd" fill="url(#SVGID_43_)" d="M564,681.9h-5.1v-32.7c-2.5-7.2-1.1-15,2.6-22.2&#10;&#9;&#9;c3.6,7.2,5.1,15,2.6,22.2V681.9z"/>
	<linearGradient id="SVGID_44_" gradientUnits="userSpaceOnUse" x1="600.25" y1="681.94" x2="600.25" y2="627.1299">
		<stop offset="0" style="stop-color:#C2CFDB"/>
		<stop offset="1" style="stop-color:#586A78"/>
	</linearGradient>
	<path fill-rule="evenodd" clip-rule="evenodd" fill="url(#SVGID_44_)" d="M602.8,681.9h-5.1v-32.7c-2.5-7.2-1.1-15,2.6-22.2&#10;&#9;&#9;c3.6,7.2,5.1,15,2.6,22.2V681.9z"/>
</g>
<g>
	<linearGradient id="SVGID_45_" gradientUnits="userSpaceOnUse" x1="1144.1851" y1="644.105" x2="1194.2001" y2="644.105">
		<stop offset="0" style="stop-color:#FFFFFF"/>
		<stop offset="1" style="stop-color:#BFCDD9"/>
	</linearGradient>
	<path d="M 1144.199951 606.299988 H 1194.199951 V 681.999985 H 1144.199951 V 606.299988 Z" fill-rule="evenodd" clip-rule="evenodd" fill="url(#SVGID_45_)"/>
	<linearGradient id="SVGID_46_" gradientUnits="userSpaceOnUse" x1="1169.1925" y1="681.94" x2="1169.1925" y2="606.27">
		<stop offset="0" style="stop-color:#FFFFFF"/>
		<stop offset="1" style="stop-color:#BFCDD9"/>
	</linearGradient>
	<path d="M 1156.099976 606.299988 H 1182.299976 V 681.999985 H 1156.099976 V 606.299988 Z" fill-rule="evenodd" clip-rule="evenodd" fill="url(#SVGID_46_)"/>
	<linearGradient id="SVGID_47_" gradientUnits="userSpaceOnUse" x1="1169.1918" y1="681.94" x2="1169.1918" y2="627.1299">
		<stop offset="0" style="stop-color:#C2CFDB"/>
		<stop offset="1" style="stop-color:#586A78"/>
	</linearGradient>
	<path fill-rule="evenodd" clip-rule="evenodd" fill="url(#SVGID_47_)" d="M1160.8,681.9h16.7v-32.7c8.2-7.2,3.5-15-8.4-22.2&#10;&#9;&#9;c-11.8,7.2-16.5,15-8.3,22.2V681.9z"/>
	<linearGradient id="SVGID_48_" gradientUnits="userSpaceOnUse" x1="1169.1925" y1="514.675" x2="1169.1925" y2="606.27">
		<stop offset="0" style="stop-color:#FFFFFF"/>
		<stop offset="1" style="stop-color:#BFCDD9"/>
	</linearGradient>
	<path fill-rule="evenodd" clip-rule="evenodd" fill="url(#SVGID_48_)" d="M1148.3,606.3h41.8v-4.6c20.1-17.7,9.1-37-19.6-54.7&#10;&#9;&#9;c1.2-0.5,2-1.6,2-3c0-1.4-1-2.7-2.3-3.1l-0.1-1.6c0.6-0.3,1.1-1,1.1-1.8c0-0.8-0.5-1.5-1.2-1.8l-0.2-4.5c0.5-0.2,0.8-0.7,0.8-1.2&#10;&#9;&#9;c0-0.6-0.4-1.1-0.9-1.3l-0.2-4.8c2.5-0.1,4.5-2.1,4.5-4.7c0-2.6-2.1-4.7-4.7-4.7c-2.6,0-4.7,2.1-4.7,4.7c0,2.5,2,4.6,4.6,4.7&#10;&#9;&#9;l-0.2,4.8c-0.5,0.2-0.9,0.7-0.9,1.3c0,0.6,0.3,1,0.8,1.2l-0.2,4.5c-0.7,0.3-1.2,1-1.2,1.8c0,0.8,0.5,1.4,1.1,1.8l-0.1,1.6&#10;&#9;&#9;c-1.3,0.4-2.3,1.6-2.3,3.1c0,1.3,0.8,2.5,2,3c-28.7,17.7-39.7,37-19.6,54.7V606.3z M1169.2,515.6c2.1,0,3.7,1.6,3.7,3.7&#10;&#9;&#9;s-1.7,3.7-3.7,3.7c-2,0-3.7-1.7-3.7-3.7S1167.1,515.6,1169.2,515.6L1169.2,515.6z"/>
	<linearGradient id="SVGID_49_" gradientUnits="userSpaceOnUse" x1="1169.1925" y1="606.27" x2="1169.1925" y2="623.8221">
		<stop offset="0" style="stop-color:#FFFFFF"/>
		<stop offset="1" style="stop-color:#BFCDD9"/>
	</linearGradient>
	<path d="M 1141.5 606.299988 H 1196.900002 V 612.599988 H 1141.5 V 606.299988 Z" fill-rule="evenodd" clip-rule="evenodd" fill="url(#SVGID_49_)"/>
	<linearGradient id="SVGID_50_" gradientUnits="userSpaceOnUse" x1="1149.755" y1="681.94" x2="1149.755" y2="627.1299">
		<stop offset="0" style="stop-color:#C2CFDB"/>
		<stop offset="1" style="stop-color:#586A78"/>
	</linearGradient>
	<path fill-rule="evenodd" clip-rule="evenodd" fill="url(#SVGID_50_)" d="M1152.3,681.9h-5.1v-32.7c-2.5-7.2-1.1-15,2.6-22.2&#10;&#9;&#9;c3.6,7.2,5.1,15,2.6,22.2V681.9z"/>
	<linearGradient id="SVGID_51_" gradientUnits="userSpaceOnUse" x1="1188.6301" y1="681.94" x2="1188.6301" y2="627.1299">
		<stop offset="0" style="stop-color:#C2CFDB"/>
		<stop offset="1" style="stop-color:#586A78"/>
	</linearGradient>
	<path fill-rule="evenodd" clip-rule="evenodd" fill="url(#SVGID_51_)" d="M1191.2,681.9h-5.1v-32.7c-2.5-7.2-1.1-15,2.6-22.2&#10;&#9;&#9;c3.6,7.2,5.1,15,2.6,22.2V681.9z"/>
</g>
<g>
	<path d="M 282.100006 705.099976 H 1467.900055 V 979.999969 H 282.100006 V 705.099976 Z" fill-rule="evenodd" clip-rule="evenodd" fill="#FFFFFF"/>
	<linearGradient id="SVGID_52_" gradientUnits="userSpaceOnUse" x1="875" y1="1007.4435" x2="875" y2="767.5724">
		<stop offset="0" style="stop-color:#FFFFFF"/>
		<stop offset="1" style="stop-color:#A4B7C6"/>
	</linearGradient>
	<path d="M 287.100006 707.599976 H 1462.799957 V 977.399963 H 287.100006 V 707.599976 Z" fill-rule="evenodd" clip-rule="evenodd" fill="url(#SVGID_52_)"/>
	<linearGradient id="SVGID_53_" gradientUnits="userSpaceOnUse" x1="418.95" y1="717.92" x2="418.95" y2="734.661">
		<stop offset="0" style="stop-color:#FFFFFF"/>
		<stop offset="1" style="stop-color:#BFCDD9"/>
	</linearGradient>
	<path d="M 282.100006 717.900024 H 555.800018 V 724.200025 H 282.100006 V 717.900024 Z" fill-rule="evenodd" clip-rule="evenodd" fill="url(#SVGID_53_)"/>
	<linearGradient id="SVGID_54_" gradientUnits="userSpaceOnUse" x1="418.95" y1="743.8199" x2="418.95" y2="767.6141">
		<stop offset="0" style="stop-color:#FFFFFF"/>
		<stop offset="1" style="stop-color:#BFCDD9"/>
	</linearGradient>
	<path d="M 282.100006 743.799988 H 555.800018 V 750.099988 H 282.100006 V 743.799988 Z" fill-rule="evenodd" clip-rule="evenodd" fill="url(#SVGID_54_)"/>
	<linearGradient id="SVGID_55_" gradientUnits="userSpaceOnUse" x1="421.61" y1="751.5844" x2="421.61" y2="719.1903">
		<stop offset="0" style="stop-color:#C2CFDB"/>
		<stop offset="1" style="stop-color:#586A78"/>
	</linearGradient>
	<path fill-rule="evenodd" clip-rule="evenodd" fill="url(#SVGID_55_)" d="M547.9,728.5h7.9v11.1h-7.9V728.5z M347.5,728.5h14.8&#10;&#9;&#9;v11.1h-14.8V728.5z M327.5,728.5h14.8v11.1h-14.8V728.5z M307.4,728.5h14.8v11.1h-14.8V728.5z M287.4,728.5h14.8v11.1h-14.8V728.5z&#10;&#9;&#9; M527.8,728.5h14.8v11.1h-14.8V728.5z M507.8,728.5h14.8v11.1h-14.8V728.5z M487.8,728.5h14.8v11.1h-14.8V728.5z M467.7,728.5h14.8&#10;&#9;&#9;v11.1h-14.8V728.5z M447.7,728.5h14.8v11.1h-14.8V728.5z M427.7,728.5h14.8v11.1h-14.8V728.5z M407.6,728.5h14.8v11.1h-14.8V728.5z&#10;&#9;&#9; M387.6,728.5h14.8v11.1h-14.8V728.5z M367.5,728.5h14.8v11.1h-14.8V728.5z"/>
	<linearGradient id="SVGID_56_" gradientUnits="userSpaceOnUse" x1="1331.0675" y1="717.92" x2="1331.0675" y2="733.1523">
		<stop offset="0" style="stop-color:#FFFFFF"/>
		<stop offset="1" style="stop-color:#BFCDD9"/>
	</linearGradient>
	<path d="M 1194.199951 717.900024 H 1467.899963 V 724.200025 H 1194.199951 V 717.900024 Z" fill-rule="evenodd" clip-rule="evenodd" fill="url(#SVGID_56_)"/>
	<linearGradient id="SVGID_57_" gradientUnits="userSpaceOnUse" x1="1331.0675" y1="743.8199" x2="1331.0675" y2="758.6531">
		<stop offset="0" style="stop-color:#FFFFFF"/>
		<stop offset="1" style="stop-color:#BFCDD9"/>
	</linearGradient>
	<path d="M 1194.199951 743.799988 H 1467.899963 V 750.099988 H 1194.199951 V 743.799988 Z" fill-rule="evenodd" clip-rule="evenodd" fill="url(#SVGID_57_)"/>
	<linearGradient id="SVGID_58_" gradientUnits="userSpaceOnUse" x1="1328.4076" y1="747.0846" x2="1328.4076" y2="718.0208">
		<stop offset="0" style="stop-color:#C2CFDB"/>
		<stop offset="1" style="stop-color:#586A78"/>
	</linearGradient>
	<path fill-rule="evenodd" clip-rule="evenodd" fill="url(#SVGID_58_)" d="M1202.1,728.5h-7.9v11.1h7.9V728.5z M1402.5,728.5h-14.8&#10;&#9;&#9;v11.1h14.8V728.5z M1422.5,728.5h-14.8v11.1h14.8V728.5z M1442.6,728.5h-14.8v11.1h14.8V728.5z M1462.6,728.5h-14.8v11.1h14.8&#10;&#9;&#9;V728.5z M1222.2,728.5h-14.8v11.1h14.8V728.5z M1242.2,728.5h-14.8v11.1h14.8V728.5z M1262.2,728.5h-14.8v11.1h14.8V728.5z&#10;&#9;&#9; M1282.3,728.5h-14.8v11.1h14.8V728.5z M1302.3,728.5h-14.8v11.1h14.8V728.5z M1322.4,728.5h-14.8v11.1h14.8V728.5z M1342.4,728.5&#10;&#9;&#9;h-14.8v11.1h14.8V728.5z M1362.4,728.5h-14.8v11.1h14.8V728.5z M1382.5,728.5h-14.8v11.1h14.8V728.5z"/>
	<linearGradient id="SVGID_59_" gradientUnits="userSpaceOnUse" x1="356.51" y1="984.6133" x2="356.51" y2="810.5933">
		<stop offset="0" style="stop-color:#FFFFFF"/>
		<stop offset="1" style="stop-color:#7D93A3"/>
	</linearGradient>
	<path fill-rule="evenodd" clip-rule="evenodd" fill="url(#SVGID_59_)" d="M322.7,951.6h67.6v-84.2c33.1-29,14.2-60.8-33.8-89.8&#10;&#9;&#9;c-48,29-66.9,60.8-33.8,89.8V951.6z" style="fill: rgb(75, 175, 148);"/>
	<linearGradient id="SVGID_60_" gradientUnits="userSpaceOnUse" x1="356.5227" y1="951.615" x2="356.5227" y2="812.49">
		<stop offset="0" style="stop-color:#C2CFDB"/>
		<stop offset="1" style="stop-color:#586A78"/>
	</linearGradient>
	<path fill-rule="evenodd" clip-rule="evenodd" fill="url(#SVGID_60_)" d="M333,951.6h47v-76.7c23-20.2,9.8-42.2-23.5-62.4&#10;&#9;&#9;c-33.4,20.2-46.5,42.2-23.5,62.4V951.6z" style="fill: rgb(0, 0, 0);"/>
	<linearGradient id="SVGID_61_" gradientUnits="userSpaceOnUse" x1="486.08" y1="980.1135" x2="486.08" y2="806.0936">
		<stop offset="0" style="stop-color:#FFFFFF"/>
		<stop offset="1" style="stop-color:#7D93A3"/>
	</linearGradient>
	<path fill-rule="evenodd" clip-rule="evenodd" fill="url(#SVGID_61_)" d="M452.3,951.6h67.6v-84.2c33.1-29,14.2-60.8-33.8-89.8&#10;&#9;&#9;c-48,29-66.9,60.8-33.8,89.8V951.6z" style="fill: rgb(75, 175, 148);"/>
	<linearGradient id="SVGID_62_" gradientUnits="userSpaceOnUse" x1="486.0722" y1="951.615" x2="486.0722" y2="812.49">
		<stop offset="0" style="stop-color:#C2CFDB"/>
		<stop offset="1" style="stop-color:#586A78"/>
	</linearGradient>
	<path fill-rule="evenodd" clip-rule="evenodd" fill="url(#SVGID_62_)" d="M462.6,951.6h47v-76.7c23-20.2,9.9-42.2-23.5-62.4&#10;&#9;&#9;c-33.4,20.2-46.5,42.2-23.5,62.4V951.6z" style="fill: rgb(0, 0, 0);"/>
	<linearGradient id="SVGID_63_" gradientUnits="userSpaceOnUse" x1="1263.9291" y1="980.1135" x2="1263.9291" y2="806.0936">
		<stop offset="0" style="stop-color:#FFFFFF"/>
		<stop offset="1" style="stop-color:#7D93A3"/>
	</linearGradient>
	<path fill-rule="evenodd" clip-rule="evenodd" fill="url(#SVGID_63_)" d="M1230.1,951.6h67.7v-84.2c33.1-29,14.2-60.8-33.8-89.8&#10;&#9;&#9;c-48,29-66.9,60.8-33.8,89.8V951.6z" style="fill: rgb(75, 175, 148);"/>
	<linearGradient id="SVGID_64_" gradientUnits="userSpaceOnUse" x1="1263.9327" y1="951.615" x2="1263.9327" y2="812.49">
		<stop offset="0" style="stop-color:#C2CFDB"/>
		<stop offset="1" style="stop-color:#586A78"/>
	</linearGradient>
	<path fill-rule="evenodd" clip-rule="evenodd" fill="url(#SVGID_64_)" d="M1240.4,951.6h47v-76.7c23-20.2,9.8-42.2-23.5-62.4&#10;&#9;&#9;c-33.4,20.2-46.5,42.2-23.5,62.4V951.6z" style="fill: rgb(0, 0, 0);"/>
	<linearGradient id="SVGID_65_" gradientUnits="userSpaceOnUse" x1="1393.49" y1="980.1135" x2="1393.49" y2="806.0936">
		<stop offset="0" style="stop-color:#FFFFFF"/>
		<stop offset="1" style="stop-color:#7D93A3"/>
	</linearGradient>
	<path fill-rule="evenodd" clip-rule="evenodd" fill="url(#SVGID_65_)" d="M1359.7,951.6h67.6v-84.2c33.1-29,14.2-60.8-33.8-89.8&#10;&#9;&#9;c-48,29-66.9,60.8-33.8,89.8V951.6z" style="fill: rgb(75, 175, 148);"/>
	<linearGradient id="SVGID_66_" gradientUnits="userSpaceOnUse" x1="1393.4978" y1="951.615" x2="1393.4978" y2="812.49">
		<stop offset="0" style="stop-color:#C2CFDB"/>
		<stop offset="1" style="stop-color:#586A78"/>
	</linearGradient>
	<path fill-rule="evenodd" clip-rule="evenodd" fill="url(#SVGID_66_)" d="M1370,951.6h47v-76.7c23-20.2,9.9-42.2-23.5-62.4&#10;&#9;&#9;c-33.4,20.2-46.5,42.2-23.5,62.4V951.6z" style="fill: rgb(0, 0, 0);"/>
<path d="M 1257.126708984375 826.6021118164062 C 1257.126708984375 826.6021118164062 1257.126708984375 828.046875 1257.126708984375 826.6021118164062" style="fill: rgb(0, 0, 0); fill-opacity: 1; stroke: rgb(0, 0, 0); stroke-opacity: 1; stroke-width: 0; paint-order: fill;"/><path d="M 1388.5955810546875 794.818359375" style="fill: rgb(75, 175, 148); fill-opacity: 1; stroke: rgb(0, 0, 0); stroke-opacity: 1; stroke-width: 0; paint-order: fill;"/><path d="M 1290.3551025390625 815.0443725585938" style="fill: rgb(75, 175, 148); fill-opacity: 1; stroke: rgb(0, 0, 0); stroke-opacity: 1; stroke-width: 0; paint-order: fill;"/><path d="M 368.6279296875 803.4866943359375" style="fill: rgb(75, 175, 148); fill-opacity: 1; stroke: rgb(0, 0, 0); stroke-opacity: 1; stroke-width: 0; paint-order: fill;"/></g>
<g>
	<path d="M 555.799988 681.900024 H 1194.200012 V 980.000031 H 555.799988 V 681.900024 Z" fill-rule="evenodd" clip-rule="evenodd" fill="#FFFFFF"/>
	<linearGradient id="SVGID_67_" gradientUnits="userSpaceOnUse" x1="875" y1="1025.2325" x2="875" y2="775.0571">
		<stop offset="0" style="stop-color:#FFFFFF"/>
		<stop offset="1" style="stop-color:#BFCDD9"/>
	</linearGradient>
	<path d="M 558.5 684.700012 H 1191.400024 V 977.200012 H 558.5 V 684.700012 Z" fill-rule="evenodd" clip-rule="evenodd" fill="url(#SVGID_67_)"/>
	<linearGradient id="SVGID_68_" gradientUnits="userSpaceOnUse" x1="651.0875" y1="698.95" x2="651.0875" y2="719.5854">
		<stop offset="0" style="stop-color:#FFFFFF"/>
		<stop offset="1" style="stop-color:#BFCDD9"/>
	</linearGradient>
	<path d="M 550.400024 699 H 751.800018 V 705.3 H 550.400024 V 699 Z" fill-rule="evenodd" clip-rule="evenodd" fill="url(#SVGID_68_)"/>
	<linearGradient id="SVGID_69_" gradientUnits="userSpaceOnUse" x1="651.0875" y1="724.85" x2="651.0875" y2="749.6594">
		<stop offset="0" style="stop-color:#FFFFFF"/>
		<stop offset="1" style="stop-color:#BFCDD9"/>
	</linearGradient>
	<path d="M 550.400024 724.900024 H 751.800018 V 731.200025 H 550.400024 V 724.900024 Z" fill-rule="evenodd" clip-rule="evenodd" fill="url(#SVGID_69_)"/>
	<linearGradient id="SVGID_70_" gradientUnits="userSpaceOnUse" x1="657.6675" y1="731.1145" x2="657.6675" y2="701.5451">
		<stop offset="0" style="stop-color:#C2CFDB"/>
		<stop offset="1" style="stop-color:#586A78"/>
	</linearGradient>
	<path fill-rule="evenodd" clip-rule="evenodd" fill="url(#SVGID_70_)" d="M743.9,709.5h7.9v11.1h-7.9V709.5z M723.8,709.5h14.8&#10;&#9;&#9;v11.1h-14.8V709.5z M703.8,709.5h14.8v11.1h-14.8V709.5z M683.8,709.5h14.8v11.1h-14.8V709.5z M663.7,709.5h14.8v11.1h-14.8V709.5z&#10;&#9;&#9; M643.7,709.5h14.8v11.1h-14.8V709.5z M623.7,709.5h14.8v11.1h-14.8V709.5z M603.6,709.5h14.8v11.1h-14.8V709.5z M583.6,709.5h14.8&#10;&#9;&#9;v11.1h-14.8V709.5z M563.5,709.5h14.8v11.1h-14.8V709.5z"/>
	<linearGradient id="SVGID_71_" gradientUnits="userSpaceOnUse" x1="1098.9125" y1="698.95" x2="1098.9125" y2="715.0826">
		<stop offset="0" style="stop-color:#FFFFFF"/>
		<stop offset="1" style="stop-color:#BFCDD9"/>
	</linearGradient>
	<path d="M 998.200012 699 H 1199.600006 V 705.3 H 998.200012 V 699 Z" fill-rule="evenodd" clip-rule="evenodd" fill="url(#SVGID_71_)"/>
	<linearGradient id="SVGID_72_" gradientUnits="userSpaceOnUse" x1="1098.9125" y1="724.85" x2="1098.9125" y2="745.1113">
		<stop offset="0" style="stop-color:#FFFFFF"/>
		<stop offset="1" style="stop-color:#BFCDD9"/>
	</linearGradient>
	<path d="M 998.200012 724.900024 H 1199.600006 V 731.200025 H 998.200012 V 724.900024 Z" fill-rule="evenodd" clip-rule="evenodd" fill="url(#SVGID_72_)"/>
	<linearGradient id="SVGID_73_" gradientUnits="userSpaceOnUse" x1="1092.3325" y1="729.6146" x2="1092.3325" y2="703.0223">
		<stop offset="0" style="stop-color:#C2CFDB"/>
		<stop offset="1" style="stop-color:#586A78"/>
	</linearGradient>
	<path fill-rule="evenodd" clip-rule="evenodd" fill="url(#SVGID_73_)" d="M1006.1,709.5h-7.9v11.1h7.9V709.5z M1026.2,709.5h-14.8&#10;&#9;&#9;v11.1h14.8V709.5z M1046.2,709.5h-14.8v11.1h14.8V709.5z M1066.2,709.5h-14.8v11.1h14.8V709.5z M1086.3,709.5h-14.8v11.1h14.8&#10;&#9;&#9;V709.5z M1106.3,709.5h-14.8v11.1h14.8V709.5z M1126.4,709.5h-14.8v11.1h14.8V709.5z M1146.4,709.5h-14.8v11.1h14.8V709.5z&#10;&#9;&#9; M1166.4,709.5h-14.8v11.1h14.8V709.5z M1186.5,709.5h-14.8v11.1h14.8V709.5z"/>
	<linearGradient id="SVGID_74_" gradientUnits="userSpaceOnUse" x1="651.5068" y1="1008.4986" x2="651.5068" y2="789.9935">
		<stop offset="0" style="stop-color:#FFFFFF"/>
		<stop offset="1" style="stop-color:#7D93A3"/>
	</linearGradient>
	<path fill-rule="evenodd" clip-rule="evenodd" fill="url(#SVGID_74_)" d="M609,980H694V874.3c41.5-36.5,17.8-76.3-42.5-112.8&#10;&#9;&#9;c-60.3,36.5-84,76.3-42.5,112.8V980z" style="fill: rgb(75, 175, 148);"/>
	<linearGradient id="SVGID_75_" gradientUnits="userSpaceOnUse" x1="651.5068" y1="980" x2="651.5068" y2="805.315">
		<stop offset="0" style="stop-color:#C2CFDB"/>
		<stop offset="1" style="stop-color:#586A78"/>
	</linearGradient>
	<path fill-rule="evenodd" clip-rule="evenodd" fill="url(#SVGID_75_)" d="M622,980h59v-96.3c28.9-25.3,12.4-53-29.5-78.4&#10;&#9;&#9;c-41.9,25.3-58.3,53-29.5,78.4V980z" style="fill: rgb(0, 0, 0);"/>
	<linearGradient id="SVGID_76_" gradientUnits="userSpaceOnUse" x1="1098.4973" y1="1012.9984" x2="1098.4973" y2="794.4933">
		<stop offset="0" style="stop-color:#FFFFFF"/>
		<stop offset="1" style="stop-color:#7D93A3"/>
	</linearGradient>
	<path fill-rule="evenodd" clip-rule="evenodd" fill="url(#SVGID_76_)" d="M1056,980h84.9V874.3c41.5-36.5,17.8-76.3-42.5-112.8&#10;&#9;&#9;c-60.3,36.5-84,76.3-42.5,112.8V980z" style="fill: rgb(75, 175, 148);"/>
	<linearGradient id="SVGID_77_" gradientUnits="userSpaceOnUse" x1="1098.506" y1="980" x2="1098.506" y2="805.315">
		<stop offset="0" style="stop-color:#C2CFDB"/>
		<stop offset="1" style="stop-color:#586A78"/>
	</linearGradient>
	<path fill-rule="evenodd" clip-rule="evenodd" fill="url(#SVGID_77_)" d="M1069,980h59v-96.3c28.9-25.3,12.4-53-29.5-78.4&#10;&#9;&#9;c-41.9,25.3-58.4,53-29.5,78.4V980z" style="fill: rgb(0, 0, 0);"/>
<path d="M 667.68359375 791.928955078125" style="fill: rgb(75, 175, 148); fill-opacity: 1; stroke: rgb(0, 0, 0); stroke-opacity: 1; stroke-width: 0; paint-order: fill;"/></g>
<g>
	<linearGradient id="SVGID_78_" gradientUnits="userSpaceOnUse" x1="186.41" y1="451.01" x2="282.73" y2="451.01">
		<stop offset="0" style="stop-color:#FFFFFF"/>
		<stop offset="1" style="stop-color:#BFCDD9"/>
	</linearGradient>
	<path d="M 186.399994 378.100006 H 282.699997 V 523.800003 H 186.399994 V 378.100006 Z" fill-rule="evenodd" clip-rule="evenodd" fill="url(#SVGID_78_)"/>
	<linearGradient id="SVGID_79_" gradientUnits="userSpaceOnUse" x1="234.57" y1="523.88" x2="234.57" y2="378.14">
		<stop offset="0" style="stop-color:#FFFFFF"/>
		<stop offset="1" style="stop-color:#BFCDD9"/>
	</linearGradient>
	<path d="M 209.300003 378.100006 H 259.800003 V 523.800003 H 209.300003 V 378.100006 Z" fill-rule="evenodd" clip-rule="evenodd" fill="url(#SVGID_79_)"/>
	<linearGradient id="SVGID_80_" gradientUnits="userSpaceOnUse" x1="234.57" y1="523.88" x2="234.57" y2="418.32">
		<stop offset="0" style="stop-color:#C2CFDB"/>
		<stop offset="1" style="stop-color:#586A78"/>
	</linearGradient>
	<path fill-rule="evenodd" clip-rule="evenodd" fill="url(#SVGID_80_)" d="M218.5,523.9h32.1V461c15.8-13.8,6.8-28.9-16.1-42.7&#10;&#9;&#9;c-22.8,13.8-31.8,28.9-16.1,42.7V523.9z"/>
	<linearGradient id="SVGID_81_" gradientUnits="userSpaceOnUse" x1="234.57" y1="201.74" x2="234.57" y2="378.14">
		<stop offset="0" style="stop-color:#FFFFFF"/>
		<stop offset="1" style="stop-color:#BFCDD9"/>
	</linearGradient>
	<path fill-rule="evenodd" clip-rule="evenodd" fill="url(#SVGID_81_)" d="M194.4,378.1h80.4v-8.9c38.8-34,17.5-71.1-37.7-105.2&#10;&#9;&#9;c2.2-0.9,3.8-3.2,3.8-5.7c0-2.8-1.9-5.2-4.4-6l-0.1-3.1c1.2-0.6,2.1-1.9,2.1-3.3c0-1.6-1-2.9-2.4-3.5l-0.4-8.7&#10;&#9;&#9;c0.9-0.4,1.6-1.3,1.6-2.3c0-1.2-0.8-2.1-1.8-2.4l-0.5-9.2c4.9-0.1,8.7-4.1,8.7-9c0-5-4-9-9-9c-5,0-9,4-9,9c0,4.9,3.9,8.8,8.7,9&#10;&#9;&#9;l-0.5,9.2c-1.1,0.3-1.8,1.3-1.8,2.4c0,1.1,0.7,2,1.6,2.3l-0.4,8.7c-1.4,0.5-2.4,1.9-2.4,3.5c0,1.5,0.8,2.7,2.1,3.3l-0.1,3.1&#10;&#9;&#9;c-2.6,0.8-4.4,3.2-4.4,6c0,2.6,1.6,4.8,3.8,5.7c-55.2,34.1-76.5,71.2-37.7,105.2V378.1z M234.6,203.6c4,0,7.2,3.2,7.2,7.2&#10;&#9;&#9;c0,4-3.2,7.2-7.2,7.2s-7.2-3.2-7.2-7.2C227.4,206.7,230.6,203.6,234.6,203.6L234.6,203.6z"/>
	<linearGradient id="SVGID_82_" gradientUnits="userSpaceOnUse" x1="234.57" y1="378.14" x2="234.57" y2="407.6354">
		<stop offset="0" style="stop-color:#FFFFFF"/>
		<stop offset="1" style="stop-color:#BFCDD9"/>
	</linearGradient>
	<path d="M 181.199997 378.100006 H 287.899994 V 390.300006 H 181.199997 V 378.100006 Z" fill-rule="evenodd" clip-rule="evenodd" fill="url(#SVGID_82_)"/>
	<linearGradient id="SVGID_83_" gradientUnits="userSpaceOnUse" x1="197.1382" y1="523.88" x2="197.1382" y2="418.32">
		<stop offset="0" style="stop-color:#C2CFDB"/>
		<stop offset="1" style="stop-color:#586A78"/>
	</linearGradient>
	<path fill-rule="evenodd" clip-rule="evenodd" fill="url(#SVGID_83_)" d="M202.1,523.9h-9.9V461c-4.8-13.8-2.1-28.9,5-42.7&#10;&#9;&#9;c7,13.8,9.8,28.9,4.9,42.7V523.9z"/>
	<linearGradient id="SVGID_84_" gradientUnits="userSpaceOnUse" x1="272.0018" y1="523.88" x2="272.0018" y2="418.32">
		<stop offset="0" style="stop-color:#C2CFDB"/>
		<stop offset="1" style="stop-color:#586A78"/>
	</linearGradient>
	<path fill-rule="evenodd" clip-rule="evenodd" fill="url(#SVGID_84_)" d="M277,523.9h-9.9V461c-4.8-13.8-2.1-28.9,4.9-42.7&#10;&#9;&#9;c7,13.8,9.8,28.9,5,42.7V523.9z"/>
	<linearGradient id="SVGID_85_" gradientUnits="userSpaceOnUse" x1="182" y1="603.4175" x2="287.14" y2="603.4175">
		<stop offset="0" style="stop-color:#FFFFFF"/>
		<stop offset="1" style="stop-color:#BFCDD9"/>
	</linearGradient>
	<path d="M 182 523.900024 H 287.099998 V 683.000031 H 182 V 523.900024 Z" fill-rule="evenodd" clip-rule="evenodd" fill="url(#SVGID_85_)"/>
	<linearGradient id="SVGID_86_" gradientUnits="userSpaceOnUse" x1="234.57" y1="682.955" x2="234.57" y2="523.88">
		<stop offset="0" style="stop-color:#FFFFFF"/>
		<stop offset="1" style="stop-color:#BFCDD9"/>
	</linearGradient>
	<path d="M 207 523.900024 H 262.099998 V 683.000031 H 207 V 523.900024 Z" fill-rule="evenodd" clip-rule="evenodd" fill="url(#SVGID_86_)"/>
	<linearGradient id="SVGID_87_" gradientUnits="userSpaceOnUse" x1="234.57" y1="682.955" x2="234.57" y2="567.735">
		<stop offset="0" style="stop-color:#C2CFDB"/>
		<stop offset="1" style="stop-color:#586A78"/>
	</linearGradient>
	<path fill-rule="evenodd" clip-rule="evenodd" fill="url(#SVGID_87_)" d="M217,683h35.1v-68.6c17.2-15.1,7.4-31.6-17.5-46.6&#10;&#9;&#9;c-24.9,15-34.7,31.5-17.5,46.6V683z"/>
	<linearGradient id="SVGID_88_" gradientUnits="userSpaceOnUse" x1="234.57" y1="523.88" x2="234.57" y2="551.755">
		<stop offset="0" style="stop-color:#FFFFFF"/>
		<stop offset="1" style="stop-color:#BFCDD9"/>
	</linearGradient>
	<path d="M 176.300003 523.900024 H 292.800003 V 537.200025 H 176.300003 V 523.900024 Z" fill-rule="evenodd" clip-rule="evenodd" fill="url(#SVGID_88_)"/>
	<linearGradient id="SVGID_89_" gradientUnits="userSpaceOnUse" x1="193.7068" y1="682.955" x2="193.7068" y2="567.735">
		<stop offset="0" style="stop-color:#C2CFDB"/>
		<stop offset="1" style="stop-color:#586A78"/>
	</linearGradient>
	<path fill-rule="evenodd" clip-rule="evenodd" fill="url(#SVGID_89_)" d="M199.1,683h-10.8v-68.6c-5.3-15.1-2.2-31.6,5.4-46.6&#10;&#9;&#9;c7.7,15,10.7,31.5,5.4,46.6V683z"/>
	<linearGradient id="SVGID_90_" gradientUnits="userSpaceOnUse" x1="275.4332" y1="682.955" x2="275.4332" y2="567.735">
		<stop offset="0" style="stop-color:#C2CFDB"/>
		<stop offset="1" style="stop-color:#586A78"/>
	</linearGradient>
	<path fill-rule="evenodd" clip-rule="evenodd" fill="url(#SVGID_90_)" d="M280.8,683H270v-68.6c-5.3-15.1-2.2-31.6,5.4-46.6&#10;&#9;&#9;c7.6,15,10.6,31.5,5.4,46.6V683z"/>
	<linearGradient id="SVGID_91_" gradientUnits="userSpaceOnUse" x1="182" y1="831.4775" x2="287.14" y2="831.4775">
		<stop offset="0" style="stop-color:#FFFFFF"/>
		<stop offset="1" style="stop-color:#BFCDD9"/>
	</linearGradient>
	<path d="M 182 683 H 287.099998 V 980 H 182 V 683 Z" fill-rule="evenodd" clip-rule="evenodd" fill="url(#SVGID_91_)"/>
	<linearGradient id="SVGID_92_" gradientUnits="userSpaceOnUse" x1="234.57" y1="980" x2="234.57" y2="682.955">
		<stop offset="0" style="stop-color:#FFFFFF"/>
		<stop offset="1" style="stop-color:#BFCDD9"/>
	</linearGradient>
	<path d="M 207 683 H 262.099998 V 980 H 207 V 683 Z" fill-rule="evenodd" clip-rule="evenodd" fill="url(#SVGID_92_)"/>
	<linearGradient id="SVGID_93_" gradientUnits="userSpaceOnUse" x1="234.57" y1="682.955" x2="234.57" y2="703.2945">
		<stop offset="0" style="stop-color:#FFFFFF"/>
		<stop offset="1" style="stop-color:#BFCDD9"/>
	</linearGradient>
	<path d="M 176.300003 683 H 292.800003 V 696.3 H 176.300003 V 683 Z" fill-rule="evenodd" clip-rule="evenodd" fill="url(#SVGID_93_)"/>
	<linearGradient id="SVGID_94_" gradientUnits="userSpaceOnUse" x1="234.57" y1="714.0699" x2="234.57" y2="742.1208">
		<stop offset="0" style="stop-color:#FFFFFF"/>
		<stop offset="1" style="stop-color:#BFCDD9"/>
	</linearGradient>
	<path d="M 176.300003 714.099976 H 292.800003 V 727.399976 H 176.300003 V 714.099976 Z" fill-rule="evenodd" clip-rule="evenodd" fill="url(#SVGID_94_)"/>
</g>
<g>
	<linearGradient id="SVGID_95_" gradientUnits="userSpaceOnUse" x1="1467.27" y1="451.01" x2="1563.59" y2="451.01">
		<stop offset="0" style="stop-color:#FFFFFF"/>
		<stop offset="1" style="stop-color:#BFCDD9"/>
	</linearGradient>
	<path d="M 1467.300049 378.100006 H 1563.600052 V 523.800003 H 1467.300049 V 378.100006 Z" fill-rule="evenodd" clip-rule="evenodd" fill="url(#SVGID_95_)"/>
	<linearGradient id="SVGID_96_" gradientUnits="userSpaceOnUse" x1="1515.4301" y1="523.88" x2="1515.4301" y2="378.14">
		<stop offset="0" style="stop-color:#FFFFFF"/>
		<stop offset="1" style="stop-color:#BFCDD9"/>
	</linearGradient>
	<path d="M 1490.199951 378.100006 H 1540.699951 V 523.800003 H 1490.199951 V 378.100006 Z" fill-rule="evenodd" clip-rule="evenodd" fill="url(#SVGID_96_)"/>
	<linearGradient id="SVGID_97_" gradientUnits="userSpaceOnUse" x1="1515.4301" y1="523.88" x2="1515.4301" y2="418.32">
		<stop offset="0" style="stop-color:#C2CFDB"/>
		<stop offset="1" style="stop-color:#586A78"/>
	</linearGradient>
	<path fill-rule="evenodd" clip-rule="evenodd" fill="url(#SVGID_97_)" d="M1499.4,523.9h32.1V461c15.8-13.8,6.8-28.9-16.1-42.7&#10;&#9;&#9;c-22.8,13.8-31.8,28.9-16.1,42.7V523.9z"/>
	<linearGradient id="SVGID_98_" gradientUnits="userSpaceOnUse" x1="1515.4301" y1="201.74" x2="1515.4301" y2="378.14">
		<stop offset="0" style="stop-color:#FFFFFF"/>
		<stop offset="1" style="stop-color:#BFCDD9"/>
	</linearGradient>
	<path fill-rule="evenodd" clip-rule="evenodd" fill="url(#SVGID_98_)" d="M1475.3,378.1h80.4v-8.9c38.8-34,17.5-71.1-37.7-105.2&#10;&#9;&#9;c2.2-0.9,3.8-3.2,3.8-5.7c0-2.8-1.9-5.2-4.4-6l-0.1-3.1c1.2-0.6,2.1-1.9,2.1-3.3c0-1.6-1-2.9-2.4-3.5l-0.4-8.7&#10;&#9;&#9;c0.9-0.4,1.6-1.3,1.6-2.3c0-1.2-0.8-2.1-1.8-2.4l-0.4-9.2c4.8-0.1,8.7-4.1,8.7-9c0-5-4-9-9-9c-4.9,0-9,4-9,9c0,4.9,3.9,8.8,8.7,9&#10;&#9;&#9;l-0.5,9.2c-1.1,0.3-1.8,1.3-1.8,2.4c0,1.1,0.7,2,1.6,2.3l-0.4,8.7c-1.4,0.5-2.4,1.9-2.4,3.5c0,1.5,0.8,2.7,2.1,3.3l-0.1,3.1&#10;&#9;&#9;c-2.6,0.8-4.4,3.2-4.4,6c0,2.6,1.5,4.8,3.7,5.7c-55.2,34.1-76.5,71.2-37.7,105.2V378.1z M1515.4,203.6c4,0,7.2,3.2,7.2,7.2&#10;&#9;&#9;c0,4-3.2,7.2-7.2,7.2c-4,0-7.2-3.2-7.2-7.2C1508.3,206.7,1511.5,203.6,1515.4,203.6L1515.4,203.6z"/>
	<linearGradient id="SVGID_99_" gradientUnits="userSpaceOnUse" x1="1515.4301" y1="378.14" x2="1515.4301" y2="401.6513">
		<stop offset="0" style="stop-color:#FFFFFF"/>
		<stop offset="1" style="stop-color:#BFCDD9"/>
	</linearGradient>
	<path d="M 1462.099976 378.100006 H 1568.799973 V 390.300006 H 1462.099976 V 378.100006 Z" fill-rule="evenodd" clip-rule="evenodd" fill="url(#SVGID_99_)"/>
	<linearGradient id="SVGID_100_" gradientUnits="userSpaceOnUse" x1="1478.0032" y1="523.88" x2="1478.0032" y2="418.32">
		<stop offset="0" style="stop-color:#C2CFDB"/>
		<stop offset="1" style="stop-color:#586A78"/>
	</linearGradient>
	<path fill-rule="evenodd" clip-rule="evenodd" fill="url(#SVGID_100_)" d="M1482.9,523.9h-9.9V461c-4.9-13.8-2.1-28.9,4.9-42.7&#10;&#9;&#9;c7,13.8,9.8,28.9,4.9,42.7V523.9z"/>
	<linearGradient id="SVGID_101_" gradientUnits="userSpaceOnUse" x1="1552.8633" y1="523.88" x2="1552.8633" y2="418.32">
		<stop offset="0" style="stop-color:#C2CFDB"/>
		<stop offset="1" style="stop-color:#586A78"/>
	</linearGradient>
	<path fill-rule="evenodd" clip-rule="evenodd" fill="url(#SVGID_101_)" d="M1557.8,523.9h-9.9V461c-4.8-13.8-2.1-28.9,5-42.7&#10;&#9;&#9;c7,13.8,9.8,28.9,4.9,42.7V523.9z"/>
	<linearGradient id="SVGID_102_" gradientUnits="userSpaceOnUse" x1="1462.86" y1="603.4175" x2="1568" y2="603.4175">
		<stop offset="0" style="stop-color:#FFFFFF"/>
		<stop offset="1" style="stop-color:#BFCDD9"/>
	</linearGradient>
	<path d="M 1462.900024 523.900024 H 1568.000023 V 683.000031 H 1462.900024 V 523.900024 Z" fill-rule="evenodd" clip-rule="evenodd" fill="url(#SVGID_102_)"/>
	<linearGradient id="SVGID_103_" gradientUnits="userSpaceOnUse" x1="1515.4299" y1="682.955" x2="1515.4299" y2="523.88">
		<stop offset="0" style="stop-color:#FFFFFF"/>
		<stop offset="1" style="stop-color:#BFCDD9"/>
	</linearGradient>
	<path d="M 1487.900024 523.900024 H 1543.000023 V 683.000031 H 1487.900024 V 523.900024 Z" fill-rule="evenodd" clip-rule="evenodd" fill="url(#SVGID_103_)"/>
	<linearGradient id="SVGID_104_" gradientUnits="userSpaceOnUse" x1="1515.4349" y1="682.955" x2="1515.4349" y2="567.735">
		<stop offset="0" style="stop-color:#C2CFDB"/>
		<stop offset="1" style="stop-color:#586A78"/>
	</linearGradient>
	<path fill-rule="evenodd" clip-rule="evenodd" fill="url(#SVGID_104_)" d="M1497.9,683h35.1v-68.6c17.1-15.1,7.3-31.6-17.6-46.6&#10;&#9;&#9;c-24.9,15-34.7,31.5-17.5,46.6V683z"/>
	<linearGradient id="SVGID_105_" gradientUnits="userSpaceOnUse" x1="1515.4301" y1="523.88" x2="1515.4301" y2="547.1447">
		<stop offset="0" style="stop-color:#FFFFFF"/>
		<stop offset="1" style="stop-color:#BFCDD9"/>
	</linearGradient>
	<path d="M 1457.199951 523.900024 H 1573.699951 V 537.200025 H 1457.199951 V 523.900024 Z" fill-rule="evenodd" clip-rule="evenodd" fill="url(#SVGID_105_)"/>
	<linearGradient id="SVGID_106_" gradientUnits="userSpaceOnUse" x1="1474.5809" y1="682.955" x2="1474.5809" y2="567.735">
		<stop offset="0" style="stop-color:#C2CFDB"/>
		<stop offset="1" style="stop-color:#586A78"/>
	</linearGradient>
	<path fill-rule="evenodd" clip-rule="evenodd" fill="url(#SVGID_106_)" d="M1480,683h-10.8v-68.6c-5.3-15.1-2.3-31.6,5.4-46.6&#10;&#9;&#9;c7.6,15,10.7,31.5,5.4,46.6V683z"/>
	<linearGradient id="SVGID_107_" gradientUnits="userSpaceOnUse" x1="1556.306" y1="682.955" x2="1556.306" y2="567.735">
		<stop offset="0" style="stop-color:#C2CFDB"/>
		<stop offset="1" style="stop-color:#586A78"/>
	</linearGradient>
	<path fill-rule="evenodd" clip-rule="evenodd" fill="url(#SVGID_107_)" d="M1561.7,683h-10.8v-68.6c-5.3-15.1-2.3-31.6,5.4-46.6&#10;&#9;&#9;c7.6,15,10.7,31.5,5.4,46.6V683z"/>
	<linearGradient id="SVGID_108_" gradientUnits="userSpaceOnUse" x1="1462.86" y1="831.4775" x2="1568" y2="831.4775">
		<stop offset="0" style="stop-color:#FFFFFF"/>
		<stop offset="1" style="stop-color:#BFCDD9"/>
	</linearGradient>
	<path d="M 1462.900024 683 H 1568.000023 V 980 H 1462.900024 V 683 Z" fill-rule="evenodd" clip-rule="evenodd" fill="url(#SVGID_108_)"/>
	<linearGradient id="SVGID_109_" gradientUnits="userSpaceOnUse" x1="1515.4299" y1="980" x2="1515.4299" y2="682.955">
		<stop offset="0" style="stop-color:#FFFFFF"/>
		<stop offset="1" style="stop-color:#BFCDD9"/>
	</linearGradient>
	<path d="M 1487.900024 683 H 1543.000023 V 980 H 1487.900024 V 683 Z" fill-rule="evenodd" clip-rule="evenodd" fill="url(#SVGID_109_)"/>
	<linearGradient id="SVGID_110_" gradientUnits="userSpaceOnUse" x1="1515.4301" y1="682.955" x2="1515.4301" y2="707.7775">
		<stop offset="0" style="stop-color:#FFFFFF"/>
		<stop offset="1" style="stop-color:#BFCDD9"/>
	</linearGradient>
	<path d="M 1457.199951 683 H 1573.699951 V 696.3 H 1457.199951 V 683 Z" fill-rule="evenodd" clip-rule="evenodd" fill="url(#SVGID_110_)"/>
	<linearGradient id="SVGID_111_" gradientUnits="userSpaceOnUse" x1="1515.4301" y1="714.0699" x2="1515.4301" y2="736.1383">
		<stop offset="0" style="stop-color:#FFFFFF"/>
		<stop offset="1" style="stop-color:#BFCDD9"/>
	</linearGradient>
	<path d="M 1457.199951 714.099976 H 1573.699951 V 727.399976 H 1457.199951 V 714.099976 Z" fill-rule="evenodd" clip-rule="evenodd" fill="url(#SVGID_111_)"/>
</g>
<g>
	<linearGradient id="SVGID_112_" gradientUnits="userSpaceOnUse" x1="875" y1="903.5038" x2="875" y2="530.7538">
		<stop offset="0" style="stop-color:#FFFFFF"/>
		<stop offset="1" style="stop-color:#BFCDD9"/>
	</linearGradient>
	<path d="M 751.799988 607.299988 H 998.199982 V 980.099976 H 751.799988 V 607.299988 Z" fill-rule="evenodd" clip-rule="evenodd" fill="url(#SVGID_112_)"/>
	<linearGradient id="SVGID_113_" gradientUnits="userSpaceOnUse" x1="875" y1="1029.4976" x2="875" y2="701.0225">
		<stop offset="0" style="stop-color:#FFFFFF"/>
		<stop offset="1" style="stop-color:#7D93A3"/>
	</linearGradient>
	<path fill-rule="evenodd" clip-rule="evenodd" fill="url(#SVGID_113_)" d="M811.2,980h127.7V821.1c62.5-54.8,26.8-114.7-63.8-169.6&#10;&#9;&#9;c-90.6,54.8-126.3,114.7-63.8,169.6V980z" style="fill: rgb(0, 0, 0);"/>
	<linearGradient id="SVGID_114_" gradientUnits="userSpaceOnUse" x1="875.0175" y1="633.4396" x2="875.0175" y2="604.0847">
		<stop offset="0" style="stop-color:#C2CFDB"/>
		<stop offset="1" style="stop-color:#586A78"/>
	</linearGradient>
	<path fill-rule="evenodd" clip-rule="evenodd" fill="url(#SVGID_114_)" d="M757.4,614.8h14.8v11.1h-14.8V614.8z M977.8,614.8h14.8&#10;&#9;&#9;v11.1h-14.8V614.8z M957.8,614.8h14.8v11.1h-14.8V614.8z M937.7,614.8h14.8v11.1h-14.8V614.8z M917.7,614.8h14.8v11.1h-14.8V614.8z&#10;&#9;&#9; M897.6,614.8h14.8v11.1h-14.8V614.8z M877.6,614.8h14.8v11.1h-14.8V614.8z M857.6,614.8h14.8v11.1h-14.8V614.8z M837.6,614.8h14.8&#10;&#9;&#9;v11.1h-14.8V614.8z M817.5,614.8h14.8v11.1h-14.8V614.8z M797.5,614.8h14.8v11.1h-14.8V614.8z M777.5,614.8h14.8v11.1h-14.8V614.8z&#10;&#9;&#9;"/>
	<path fill-rule="evenodd" clip-rule="evenodd" fill="#FFFFFF" d="M777.7,581.4c-25-22.2-45.7-50.6-46.3-85.3&#10;&#9;&#9;c-1.4-73.1,87-135.8,142.1-169.1l1.6-1l1.6,1c55.1,33.3,143.5,96,142.1,169.1c-0.7,34.6-21.3,63.1-46.3,85.3V604H777.7V581.4z"/>
	<linearGradient id="SVGID_115_" gradientUnits="userSpaceOnUse" x1="875.0175" y1="631.925" x2="875.0175" y2="652.1436">
		<stop offset="0" style="stop-color:#FFFFFF"/>
		<stop offset="1" style="stop-color:#BFCDD9"/>
	</linearGradient>
	<path d="M 746.799988 631.900024 H 1003.199982 V 638.200025 H 746.799988 V 631.900024 Z" fill-rule="evenodd" clip-rule="evenodd" fill="url(#SVGID_115_)"/>
	<linearGradient id="SVGID_116_" gradientUnits="userSpaceOnUse" x1="875.0175" y1="600.915" x2="875.0175" y2="619.6506">
		<stop offset="0" style="stop-color:#FFFFFF"/>
		<stop offset="1" style="stop-color:#BFCDD9"/>
	</linearGradient>
	<path d="M 746.799988 600.900024 H 1003.199982 V 607.200025 H 746.799988 V 600.900024 Z" fill-rule="evenodd" clip-rule="evenodd" fill="url(#SVGID_116_)"/>
	<linearGradient id="SVGID_117_" gradientUnits="userSpaceOnUse" x1="875" y1="187.18" x2="875" y2="600.915">
		<stop offset="0" style="stop-color:#FFFFFF"/>
		<stop offset="1" style="stop-color:#BFCDD9"/>
	</linearGradient>
	<path fill-rule="evenodd" clip-rule="evenodd" fill="url(#SVGID_117_)" d="M780.7,600.9h188.5V580c90.9-79.8,41-166.9-88.5-246.9&#10;&#9;&#9;c5.2-2.2,8.9-7.4,8.9-13.4c0-6.5-4.3-12.1-10.3-13.9l-0.4-7.2c2.9-1.4,4.8-4.4,4.8-7.8c0-3.7-2.3-6.9-5.6-8.2l-1-20.5&#10;&#9;&#9;c2.2-0.8,3.7-3,3.7-5.5c0-2.7-1.8-4.9-4.3-5.7l-1.1-21.7c11.3-0.3,20.4-9.6,20.4-21c0-11.6-9.4-21-21-21c-11.6,0-21,9.4-21,21&#10;&#9;&#9;c0,11.4,9.1,20.7,20.4,21l-1.1,21.7c-2.4,0.7-4.3,3-4.3,5.7c0,2.5,1.5,4.7,3.7,5.5l-1,20.5c-3.3,1.3-5.6,4.4-5.6,8.2&#10;&#9;&#9;c0,3.4,2,6.4,4.8,7.8l-0.3,7.2c-6,1.8-10.3,7.4-10.3,13.9c0,6,3.6,11.2,8.8,13.4c-129.5,80-179.4,167.1-88.5,246.9V600.9z&#10;&#9;&#9; M875,191.4c9.3,0,16.8,7.6,16.8,16.8c0,9.3-7.5,16.8-16.8,16.8c-9.3,0-16.8-7.6-16.8-16.8C858.2,198.9,865.7,191.4,875,191.4&#10;&#9;&#9;L875,191.4z"/>
	<path fill-rule="evenodd" clip-rule="evenodd" fill="#FFFFFF" d="M886,197h4.4v23.3H886V197z M865.5,205.3h-2.4v4.4h2.4V205.3z&#10;&#9;&#9; M858.7,200.9h11.2v15h2.4V197h4.4V216h2.4V197h4.4v23.3h-18v-6.2h-6.8V200.9z"/>
	<linearGradient id="SVGID_118_" gradientUnits="userSpaceOnUse" x1="875.0078" y1="980" x2="875.0078" y2="717.3599">
		<stop offset="0" style="stop-color:#C2CFDB"/><stop offset="0.67208" style="stop-color: rgb(122, 139, 152);"/>
		<stop offset="1" style="stop-color:#586A78"/>
	</linearGradient>
	<path fill-rule="evenodd" clip-rule="evenodd" fill="url(#SVGID_118_)" d="M830.7,980h88.7V835.2c43.4-38.1,18.6-79.7-44.3-117.8&#10;&#9;&#9;c-63,38.1-87.7,79.7-44.3,117.8V980z" style="fill: rgb(75, 175, 148);"/>
</g>

<g>
	<path fill-rule="evenodd" clip-rule="evenodd" fill="#FFFFFF" d="M466.5,111.1c4,0,7.9,0.4,11.7,1.1c-23.4,3.5-41.3,23.7-41.3,48.1&#10;&#9;&#9;c0,26.8,21.8,48.6,48.6,48.6c17.9,0,33.5-9.6,41.9-23.9c-5.5,28.6-30.7,50.2-60.9,50.2c-34.3,0-62-27.8-62-62.1&#10;&#9;&#9;C404.5,138.8,432.3,111.1,466.5,111.1L466.5,111.1z"/>
	<linearGradient id="SVGID_120_" gradientUnits="userSpaceOnUse" x1="463.89" y1="81.7501" x2="463.89" y2="237.0115">
		<stop offset="0" style="stop-color:#FFFFFF"/>
		<stop offset="1" style="stop-color:#FFFF99"/>
	</linearGradient>
	<path fill-rule="evenodd" clip-rule="evenodd" fill="url(#SVGID_120_)" d="M463.9,113.8c-31.6,1.4-56.7,27.4-56.7,59.4&#10;&#9;&#9;c0,32.8,26.6,59.4,59.4,59.4c23.7,0,44.7-14.1,54.1-34.9c-9.3,8.9-21.8,14-35.1,14c-28.3,0-51.2-23-51.2-51.3&#10;&#9;&#9;C434.3,139.9,446.2,122,463.9,113.8L463.9,113.8z" style="fill: rgb(244, 246, 248);"/>
<path d="M 432.1953125 196.70701599121094 L 432.1953125 196.70701599121094" style="fill: rgb(244, 246, 248); fill-opacity: 1; stroke: rgb(0, 0, 0); stroke-opacity: 1; stroke-width: 0; paint-order: fill;"/><path d="M 34.899112701416016 102.80064392089844" style="fill: rgb(244, 246, 248); fill-opacity: 1; stroke: rgb(0, 0, 0); stroke-opacity: 1; stroke-width: 0; paint-order: fill;"/></g>
<g>
	<path fill-rule="evenodd" clip-rule="evenodd" fill="#FFFFFF" d="M136.3,435.2c3.9,0,7-3.2,7-7c0-3.9-3.2-7-7-7c-3.9,0-7,3.1-7,7&#10;&#9;&#9;C129.3,432,132.4,435.2,136.3,435.2L136.3,435.2z"/>
	<path fill-rule="evenodd" clip-rule="evenodd" fill="#FFFFFF" d="M310.4,187.6c3.9,0,7.1-3.2,7.1-7c0-3.9-3.2-7-7.1-7&#10;&#9;&#9;c-3.8,0-7,3.2-7,7C303.3,184.4,306.5,187.6,310.4,187.6L310.4,187.6z"/>
	<path fill-rule="evenodd" clip-rule="evenodd" fill="#FFFFFF" d="M955.7,261.6c3.9,0,7-3.2,7-7c0-3.9-3.2-7-7-7c-3.9,0-7,3.2-7,7&#10;&#9;&#9;C948.6,258.5,951.8,261.6,955.7,261.6L955.7,261.6z"/>
	<path fill-rule="evenodd" clip-rule="evenodd" fill="#FFFFFF" d="M1137.2,251.3c3.8,0,7-3.2,7-7c0-3.9-3.2-7-7-7&#10;&#9;&#9;c-3.9,0-7.1,3.2-7.1,7C1130.1,248.1,1133.3,251.3,1137.2,251.3L1137.2,251.3z"/>
	<path fill-rule="evenodd" clip-rule="evenodd" fill="#FFFFFF" d="M1380.9,410.9c3.9,0,7-3.2,7-7c0-3.8-3.2-7-7-7c-3.8,0-7,3.2-7,7&#10;&#9;&#9;C1373.9,407.8,1377,410.9,1380.9,410.9L1380.9,410.9z"/>
	<path fill-rule="evenodd" clip-rule="evenodd" fill="#FFFFFF" d="M1666.1,507.6c3.9,0,7-3.2,7-7c0-3.9-3.2-7-7-7&#10;&#9;&#9;c-3.9,0-7.1,3.1-7.1,7C1659.1,504.4,1662.3,507.6,1666.1,507.6L1666.1,507.6z"/>
	<path fill-rule="evenodd" clip-rule="evenodd" fill="#FFFFFF" d="M1695.8,335.4c2,0,3.7-1.7,3.7-3.7c0-2.1-1.7-3.7-3.7-3.7&#10;&#9;&#9;c-2,0-3.7,1.6-3.7,3.7C1692,333.7,1693.7,335.4,1695.8,335.4L1695.8,335.4z"/>
	<path fill-rule="evenodd" clip-rule="evenodd" fill="#FFFFFF" d="M1725.4,241.6c2,0,3.7-1.7,3.7-3.7c0-2-1.7-3.7-3.7-3.7&#10;&#9;&#9;c-2,0-3.7,1.7-3.7,3.7C1721.7,240,1723.4,241.6,1725.4,241.6L1725.4,241.6z"/>
	<path fill-rule="evenodd" clip-rule="evenodd" fill="#FFFFFF" d="M1247.5,175c2.1,0,3.7-1.7,3.7-3.7c0-2-1.6-3.7-3.7-3.7&#10;&#9;&#9;c-2,0-3.7,1.7-3.7,3.7C1243.8,173.3,1245.5,175,1247.5,175L1247.5,175z"/>
	<path fill-rule="evenodd" clip-rule="evenodd" fill="#FFFFFF" d="M1049.4,206.1c2.1,0,3.7-1.7,3.7-3.7c0-2-1.6-3.7-3.7-3.7&#10;&#9;&#9;c-2,0-3.7,1.7-3.7,3.7C1045.7,204.4,1047.3,206.1,1049.4,206.1L1049.4,206.1z"/>
	<path fill-rule="evenodd" clip-rule="evenodd" fill="#FFFFFF" d="M609.7,406.1c2,0,3.7-1.7,3.7-3.7c0-2-1.7-3.7-3.7-3.7&#10;&#9;&#9;c-2,0-3.7,1.7-3.7,3.7C606,404.4,607.7,406.1,609.7,406.1L609.7,406.1z"/>
	<path fill-rule="evenodd" clip-rule="evenodd" fill="#FFFFFF" d="M61.1,238.7c2,0,3.7-1.6,3.7-3.7c0-2-1.7-3.7-3.7-3.7&#10;&#9;&#9;c-2,0-3.7,1.6-3.7,3.7C57.4,237,59.1,238.7,61.1,238.7L61.1,238.7z"/>
	<path fill-rule="evenodd" clip-rule="evenodd" fill="#FFFFFF" d="M157,202.9c2,0,3.7-1.7,3.7-3.7c0-2-1.7-3.7-3.7-3.7&#10;&#9;&#9;c-2,0-3.7,1.7-3.7,3.7C153.3,201.3,155,202.9,157,202.9L157,202.9z"/>
	<path fill-rule="evenodd" clip-rule="evenodd" fill="#FFFFFF" d="M354.5,404.6c2,0,3.7-1.7,3.7-3.7c0-2.1-1.7-3.7-3.7-3.7&#10;&#9;&#9;s-3.7,1.6-3.7,3.7C350.8,403,352.5,404.6,354.5,404.6L354.5,404.6z"/>
	<path fill-rule="evenodd" clip-rule="evenodd" fill="#FFFFFF" d="M621.2,253.5c2,0,3.7-1.7,3.7-3.7c0-2.1-1.7-3.7-3.7-3.7&#10;&#9;&#9;c-2,0-3.7,1.6-3.7,3.7C617.5,251.8,619.2,253.5,621.2,253.5L621.2,253.5z"/>
	<path fill-rule="evenodd" clip-rule="evenodd" fill="#FFFFFF" d="M779.7,306.5c1,0,1.9-0.9,1.9-1.9c0-1-0.8-1.9-1.9-1.9&#10;&#9;&#9;c-1.1,0-1.9,0.8-1.9,1.9C777.8,305.7,778.7,306.5,779.7,306.5L779.7,306.5z"/>
	<path fill-rule="evenodd" clip-rule="evenodd" fill="#FFFFFF" d="M306.4,585.8c1,0,1.9-0.8,1.9-1.9c0-1.1-0.8-1.9-1.9-1.9&#10;&#9;&#9;c-1.1,0-1.9,0.8-1.9,1.9C304.5,585,305.3,585.8,306.4,585.8L306.4,585.8z"/>
	<path fill-rule="evenodd" clip-rule="evenodd" fill="#FFFFFF" d="M257.4,123.3c1,0,1.9-0.8,1.9-1.9c0-1.1-0.9-1.9-1.9-1.9&#10;&#9;&#9;c-1.1,0-1.9,0.9-1.9,1.9C255.5,122.5,256.3,123.3,257.4,123.3L257.4,123.3z"/>
	<path fill-rule="evenodd" clip-rule="evenodd" fill="#FFFFFF" d="M45.6,505.8c1,0,1.9-0.8,1.9-1.9c0-1-0.8-1.9-1.9-1.9&#10;&#9;&#9;s-1.9,0.8-1.9,1.9C43.7,504.9,44.6,505.8,45.6,505.8L45.6,505.8z"/>
	<path fill-rule="evenodd" clip-rule="evenodd" fill="#FFFFFF" d="M373.1,320.6c1.1,0,1.9-0.9,1.9-1.9c0-1-0.8-1.9-1.9-1.9&#10;&#9;&#9;s-1.9,0.8-1.9,1.9C371.1,319.7,372,320.6,373.1,320.6L373.1,320.6z"/>
	<path fill-rule="evenodd" clip-rule="evenodd" fill="#FFFFFF" d="M769,183.7c1,0,1.9-0.9,1.9-1.9s-0.8-1.9-1.9-1.9&#10;&#9;&#9;c-1.1,0-1.9,0.8-1.9,1.9S767.9,183.7,769,183.7L769,183.7z"/>
	<path fill-rule="evenodd" clip-rule="evenodd" fill="#FFFFFF" d="M1025.3,283.9c1.1,0,1.9-0.8,1.9-1.9c0-1.1-0.9-1.9-1.9-1.9&#10;&#9;&#9;s-1.9,0.8-1.9,1.9C1023.4,283,1024.2,283.9,1025.3,283.9L1025.3,283.9z"/>
	<path fill-rule="evenodd" clip-rule="evenodd" fill="#FFFFFF" d="M1356.8,239.9c1.1,0,1.9-0.9,1.9-1.9c0-1-0.8-1.9-1.9-1.9&#10;&#9;&#9;c-1,0-1.9,0.8-1.9,1.9C1354.9,239,1355.7,239.9,1356.8,239.9L1356.8,239.9z"/>
	<path fill-rule="evenodd" clip-rule="evenodd" fill="#FFFFFF" d="M1148,345.8c1.1,0,1.9-0.8,1.9-1.9c0-1.1-0.8-1.9-1.9-1.9&#10;&#9;&#9;c-1,0-1.9,0.8-1.9,1.9C1146.1,344.9,1146.9,345.8,1148,345.8L1148,345.8z"/>
	<path fill-rule="evenodd" clip-rule="evenodd" fill="#FFFFFF" d="M1533.2,159.1c1,0,1.9-0.8,1.9-1.9c0-1-0.8-1.9-1.9-1.9&#10;&#9;&#9;s-1.9,0.8-1.9,1.9C1531.3,158.2,1532.2,159.1,1533.2,159.1L1533.2,159.1z"/>
	<path fill-rule="evenodd" clip-rule="evenodd" fill="#FFFFFF" d="M1691.7,446.5c1,0,1.9-0.8,1.9-1.9c0-1.1-0.9-1.9-1.9-1.9&#10;&#9;&#9;c-1.1,0-1.9,0.9-1.9,1.9C1689.8,445.7,1690.7,446.5,1691.7,446.5L1691.7,446.5z"/>
	<path fill-rule="evenodd" clip-rule="evenodd" fill="#FFFFFF" d="M1401.3,523.6c1,0,1.9-0.8,1.9-1.9s-0.8-1.9-1.9-1.9&#10;&#9;&#9;c-1.1,0-1.9,0.8-1.9,1.9S1400.3,523.6,1401.3,523.6L1401.3,523.6z"/>
	<path fill-rule="evenodd" clip-rule="evenodd" fill="#FFFFFF" d="M1699.5,682.4c1,0,1.9-0.8,1.9-1.9c0-1.1-0.8-1.9-1.9-1.9&#10;&#9;&#9;c-1.1,0-1.9,0.9-1.9,1.9C1697.6,681.6,1698.4,682.4,1699.5,682.4L1699.5,682.4z"/>
</g>
</svg>