<?xml version="1.0" standalone="no"?>
<!DOCTYPE svg PUBLIC "-//W3C//DTD SVG 20010904//EN"
 "http://www.w3.org/TR/2001/REC-SVG-20010904/DTD/svg10.dtd">
<svg version="1.0" xmlns="http://www.w3.org/2000/svg"
 width="300.000000pt" height="125.000000pt" viewBox="0 0 300.000000 125.000000"
 preserveAspectRatio="xMidYMid meet">
<metadata>
Created by potrace 1.10, written by Peter Selinger 2001-2011
</metadata>
<g transform="translate(0.000000,125.000000) scale(0.050000,-0.050000)"
fill="#b59c78" stroke="none">
<path d="M309 2461 c92 -102 245 -126 388 -61 48 22 104 40 124 40 63 0 -73
-117 -154 -132 -39 -7 -94 -33 -121 -57 l-51 -43 -56 56 c-47 47 -72 56 -164
56 -106 0 -216 -50 -161 -73 100 -42 164 -147 89 -147 -51 0 -137 -71 -174
-142 -39 -76 -23 -102 46 -76 44 17 77 9 189 -43 130 -59 142 -61 232 -38 83
21 104 20 164 -11 205 -106 635 -37 872 141 l63 47 10 -114 c22 -233 155 -464
318 -552 66 -35 67 -37 67 -176 l0 -141 110 -99 110 -100 -45 -30 c-60 -41
-57 -58 18 -84 125 -44 277 6 277 89 0 17 19 29 46 29 121 0 173 117 87 197
-32 30 -44 60 -38 93 6 33 -7 64 -43 100 -55 55 -63 70 -35 70 38 0 363 -497
363 -555 0 -9 -38 -29 -84 -46 -169 -58 -181 -213 -22 -289 62 -30 87 -55 97
-100 45 -196 142 -264 240 -169 66 64 119 186 97 222 -6 9 4 17 22 17 59 0
152 61 172 115 38 99 -68 225 -190 225 -18 0 -32 5 -32 11 0 31 118 237 205
359 112 156 151 202 117 136 -12 -24 -22 -69 -22 -100 0 -35 -15 -66 -40 -81
-93 -58 -36 -205 79 -205 25 0 51 -20 64 -49 42 -93 209 -116 309 -42 37 27
36 29 -17 49 -73 28 -69 50 15 102 130 80 190 215 153 347 -18 65 -15 71 34
92 184 76 304 282 353 604 l11 74 99 -67 c237 -159 626 -216 835 -122 74 33
95 35 173 13 84 -24 97 -22 227 38 117 54 145 60 194 42 72 -28 82 -17 51 59
-30 73 -129 160 -182 160 -75 0 -13 105 88 147 54 23 -55 73 -158 73 -84 0
-117 -11 -166 -52 l-61 -51 -59 42 c-32 23 -87 47 -122 54 -34 7 -88 38 -120
70 l-57 57 59 0 c33 0 95 -18 138 -40 115 -59 214 -52 331 23 54 35 88 67 75
71 -14 5 -45 -10 -70 -33 -78 -73 -173 -90 -276 -49 -117 46 -707 67 -664 24
17 -17 96 -28 225 -33 180 -6 203 -11 236 -53 20 -26 73 -57 119 -69 45 -12
109 -45 142 -72 59 -50 60 -50 81 -10 44 81 207 128 280 82 24 -15 20 -26 -25
-61 -78 -61 -71 -126 15 -157 62 -22 151 -106 151 -142 0 -7 -31 -9 -68 -5
-48 6 -95 -8 -160 -46 -77 -45 -107 -52 -177 -42 -135 21 -160 19 -255 -19
-247 -96 -660 -3 -875 198 l-65 61 0 -109 c-1 -281 -186 -605 -373 -652 -38
-9 -42 -18 -26 -60 52 -137 0 -286 -129 -366 -75 -46 -96 -113 -42 -134 54
-20 10 -47 -78 -47 -85 0 -152 43 -152 97 0 12 -20 23 -46 23 -117 0 -174 113
-85 171 39 26 47 44 38 89 -15 77 49 140 144 140 63 0 70 -5 59 -41 -18 -54
22 -99 88 -99 72 0 102 34 102 114 l0 66 -125 0 c-69 0 -153 8 -187 18 -62 17
-64 15 -200 -174 -237 -331 -303 -537 -180 -561 31 -6 36 2 27 45 -12 64 20
68 92 11 96 -75 47 -199 -88 -226 -47 -10 -59 -23 -59 -64 0 -85 -95 -229
-152 -229 -40 0 -111 115 -122 198 -10 69 -19 80 -88 100 -120 36 -157 144
-74 221 64 60 113 54 101 -11 -8 -41 -3 -51 24 -45 170 34 -216 757 -389 729
-38 -6 -122 -12 -185 -12 -126 0 -165 -47 -115 -139 40 -77 170 -50 170 34 0
61 4 65 72 65 93 0 146 -55 134 -139 -7 -48 1 -68 37 -91 88 -58 44 -170 -67
-170 -20 0 -51 -27 -70 -60 -29 -51 -46 -60 -113 -60 -125 0 -152 17 -98 61
l45 36 -113 106 c-125 119 -152 189 -119 311 12 42 14 79 5 82 -211 71 -383
353 -383 628 0 124 -13 139 -70 76 -164 -181 -632 -284 -870 -191 -95 38 -120
40 -255 19 -70 -10 -100 -3 -177 42 -65 38 -112 52 -160 46 -37 -4 -68 -2 -68
5 0 36 89 120 151 142 90 33 93 96 5 164 l-63 50 73 14 c100 18 170 -2 233
-70 l53 -56 55 47 c30 27 95 58 143 70 57 14 93 36 101 60 14 47 52 55 273 62
109 4 184 16 200 32 42 43 -507 22 -622 -23 -102 -41 -170 -31 -272 38 -86 59
-108 63 -61 10z m1966 -1277 c37 -47 20 -74 -47 -74 -51 0 -59 8 -64 67 -7 73
56 77 111 7z m1565 -3 c0 -47 -48 -86 -94 -77 -58 11 -47 101 14 117 62 16 80
7 80 -40z"/>
<path d="M360 2491 c0 -64 262 -87 330 -31 47 39 23 44 -42 10 -74 -38 -149
-38 -199 -1 -38 29 -89 41 -89 22z"/>
<path d="M5300 2493 c0 -68 251 -94 323 -34 58 49 44 51 -43 8 -66 -33 -128
-27 -245 22 -19 9 -35 10 -35 4z"/>
<path d="M1320 2432 c0 -16 -22 -56 -50 -88 -64 -76 -63 -84 11 -84 87 0 239
-91 239 -143 0 -37 -216 -80 -294 -58 -100 27 -106 27 -106 -11 0 -142 -273
-221 -400 -115 -65 55 -79 145 -20 129 152 -41 193 -6 130 111 -39 72 -58 78
-144 46 -153 -58 -190 -182 -84 -281 158 -147 586 -130 825 33 101 70 82 83
-29 19 -87 -50 -315 -130 -371 -130 -16 0 3 28 42 62 39 34 71 73 71 86 0 16
42 24 125 25 182 3 266 15 302 44 54 45 133 227 133 307 l0 76 -190 0 c-151 0
-190 -6 -190 -28z m340 -63 c0 -66 -33 -164 -77 -228 -16 -23 -29 -16 -72 34
-29 34 -92 77 -140 96 l-87 33 40 68 c40 68 41 68 188 68 l148 0 0 -71z m-847
-220 c49 -76 7 -111 -76 -64 -33 19 -69 30 -79 24 -26 -16 -22 -137 6 -165 19
-19 19 -24 0 -24 -24 0 -104 113 -104 147 0 99 199 164 253 82z"/>
<path d="M1760 2420 c0 -22 5 -40 12 -40 6 0 35 18 63 40 l50 40 -62 0 c-50 0
-63 -9 -63 -40z"/>
<path d="M2195 2447 c44 -18 85 -121 85 -211 0 -65 10 -93 40 -111 51 -32 51
-97 0 -208 -44 -97 -50 -180 -19 -238 34 -65 -31 -48 -105 27 l-66 65 -40 -58
c-47 -70 -124 -128 -180 -137 -68 -10 -69 199 -1 279 l51 60 -61 25 c-203 84
-100 441 111 388 61 -15 62 -23 9 -79 -80 -85 43 -152 162 -88 154 82 -59 322
-224 253 -357 -149 -327 -845 45 -1035 l75 -39 57 66 c31 37 94 97 141 135 84
69 84 70 85 204 0 154 36 263 133 400 l67 95 -79 0 c-86 0 -199 75 -173 116
35 58 162 70 262 26 117 -52 106 -53 189 19 l69 59 -329 -2 c-181 0 -318 -6
-304 -11z m145 -36 c-50 -28 -80 -24 -80 10 0 11 29 19 65 18 l65 0 -50 -28z
m380 -1 c-31 -37 -75 -37 -140 0 -48 27 -46 29 57 29 94 1 105 -3 83 -29z
m-580 -50 c58 -58 55 -171 -5 -187 -120 -33 -155 13 -65 83 28 22 50 44 50 49
0 24 -125 59 -174 49 -52 -10 -53 -8 -17 18 56 41 164 35 211 -12z m340 -178
c0 -32 -99 -130 -99 -99 -1 17 -14 43 -31 57 -72 60 -37 120 50 85 44 -17 80
-36 80 -43z m-624 -260 c40 -21 40 -22 1 -97 -29 -54 -37 -100 -30 -165 l9
-90 -42 80 c-31 60 -43 126 -49 270 l-7 190 39 -83 c22 -46 57 -93 79 -105z
m421 -315 c4 -3 -44 -55 -107 -116 -127 -124 -134 -124 -265 -5 l-45 41 75 26
c41 14 102 55 135 92 l60 67 70 -50 c39 -28 73 -52 77 -55z"/>
<path d="M2860 2386 c-254 -170 -401 -376 -430 -599 -18 -138 5 -145 155 -54
96 59 116 78 85 84 -66 12 -92 43 -70 84 16 29 12 39 -20 49 -58 18 -51 86 10
102 36 9 50 26 50 61 0 54 81 147 128 147 23 0 27 -16 18 -73 -13 -80 25 -127
103 -127 36 0 34 6 -19 48 -33 27 -55 51 -50 55 6 4 28 17 50 28 22 12 62 65
88 118 l49 97 46 -105 c28 -64 62 -109 87 -115 54 -14 50 -38 -11 -78 -57 -38
-52 -58 10 -38 59 18 85 77 61 139 -21 57 -8 63 68 28 53 -24 104 -121 83
-156 -8 -12 3 -21 25 -21 59 0 95 -52 64 -90 -14 -16 -38 -30 -55 -30 -24 0
-25 -6 -5 -30 33 -40 12 -85 -44 -93 -39 -6 -28 -18 73 -82 155 -97 158 -96
146 42 -20 221 -145 405 -402 596 -143 106 -155 106 -293 13z m82 -49 c-36
-103 -144 -198 -113 -99 9 27 2 41 -23 46 -27 5 -14 22 54 69 105 73 112 72
82 -16z m241 -53 c-37 -6 -40 -13 -21 -48 36 -67 -26 -33 -65 36 -79 139 -71
160 33 86 81 -58 89 -69 53 -74z m-629 -346 c13 -13 18 -36 12 -51 -6 -16 4
-45 21 -64 31 -34 28 -39 -47 -81 l-80 -45 0 57 c0 138 48 230 94 184z m964
-109 c24 -123 10 -139 -74 -85 -47 29 -60 48 -45 63 11 11 21 40 21 63 0 128
72 98 98 -41z"/>
<path d="M3180 2452 c0 -4 32 -31 71 -61 l70 -54 86 42 c102 49 132 50 223 12
112 -46 22 -151 -129 -151 -76 0 -76 0 6 -108 82 -106 142 -314 129 -438 -10
-81 -6 -90 58 -134 38 -26 104 -87 146 -135 85 -96 92 -96 225 2 331 244 269
948 -89 1006 -152 25 -294 -248 -148 -284 139 -35 230 48 129 119 -56 39 -37
60 56 60 202 0 258 -338 66 -398 -39 -13 -39 -14 4 -74 47 -66 71 -228 40
-274 -28 -42 -161 32 -221 124 l-48 72 -39 -49 c-21 -28 -64 -63 -95 -79 l-56
-29 29 75 c28 71 27 84 -21 210 -52 138 -48 219 11 238 17 6 24 37 20 88 -4
58 8 99 45 153 l51 75 -310 0 c-170 0 -309 -3 -309 -8z m258 -18 c-93 -68
-113 -72 -149 -33 -34 38 -33 39 61 39 53 0 93 -3 88 -6z m289 -24 c-14 -37
-26 -37 -76 1 -37 27 -35 29 25 29 48 0 60 -7 51 -30z m327 -36 c39 -22 35
-24 -44 -24 -125 0 -156 -38 -81 -97 61 -50 56 -93 -11 -93 -115 0 -152 91
-77 187 46 59 136 70 213 27z m-374 -164 c0 -27 -9 -50 -20 -50 -12 0 -31 -22
-44 -50 l-22 -50 -45 65 -45 65 73 34 c98 44 103 44 103 -14z m574 -301 c-6
-80 -28 -183 -51 -232 l-40 -87 -1 97 c-1 53 -16 121 -34 151 -31 53 -30 57
30 117 34 34 62 77 62 95 0 19 9 27 23 18 15 -9 19 -61 11 -159z m-194 -360
l68 -20 -49 -46 c-118 -111 -137 -110 -269 13 -72 67 -109 114 -93 120 14 4
49 28 78 53 l51 45 73 -73 c40 -40 104 -82 141 -92z"/>
<path d="M4120 2451 c0 -4 27 -28 60 -51 l60 -43 0 52 c0 43 -9 51 -60 51 -33
0 -60 -4 -60 -9z"/>
<path d="M4300 2393 c0 -93 36 -190 102 -274 59 -76 78 -81 330 -85 110 -2
124 -7 144 -53 13 -28 48 -67 78 -86 133 -82 -200 8 -352 95 -111 64 -130 51
-29 -19 241 -164 667 -181 825 -33 106 99 69 223 -84 281 -86 32 -105 26 -144
-46 -62 -116 -21 -152 129 -111 54 15 44 -62 -16 -122 -115 -115 -403 -42
-403 102 0 44 -5 45 -106 17 -78 -22 -294 21 -294 58 0 52 152 143 239 143 74
0 75 8 11 84 -27 32 -50 72 -50 88 0 22 -39 28 -190 28 l-190 0 0 -67z m376
-21 l40 -68 -87 -33 c-48 -19 -111 -62 -140 -96 -43 -50 -56 -57 -72 -34 -44
64 -77 162 -77 228 l0 71 148 0 c147 0 148 0 188 -68z m705 -230 c67 -67 54
-163 -28 -205 -35 -18 -39 -17 -18 5 29 30 34 150 7 167 -10 6 -46 -5 -79 -24
-83 -47 -125 -12 -76 64 46 69 121 66 194 -7z"/>
<path d="M861 2356 c-69 -25 -46 -52 72 -86 113 -33 277 11 300 80 8 24 -312
29 -372 6z m269 -48 c-43 -33 -181 -27 -246 11 -24 14 12 20 126 20 148 0 157
-3 120 -31z"/>
<path d="M2380 2360 c-51 -32 26 -89 120 -89 112 0 142 37 63 77 -69 36 -138
41 -183 12z m169 -41 c12 -12 -9 -19 -54 -19 -72 0 -107 21 -80 48 17 17 107
-3 134 -29z"/>
<path d="M3425 2347 c-75 -37 -71 -57 16 -74 113 -23 259 66 154 94 -68 19
-99 15 -170 -20z m154 -6 c36 -23 -50 -49 -122 -36 l-47 8 50 22 c63 28 83 29
119 6z"/>
<path d="M4767 2350 c3 -10 47 -40 97 -66 121 -62 399 2 292 68 -37 23 -397
21 -389 -2z m349 -31 c-65 -38 -203 -44 -246 -11 -37 28 -28 31 120 31 114 0
150 -6 126 -20z"/>
<path d="M1887 2252 c-44 -37 -56 -65 -56 -128 0 -163 153 -223 271 -106 76
77 73 96 -13 86 -104 -12 -203 100 -129 146 25 16 26 50 1 50 -10 0 -44 -22
-74 -48z m68 -137 c17 -19 58 -35 90 -35 72 0 65 -39 -15 -78 -87 -42 -158 3
-166 105 -8 90 41 174 53 91 4 -26 21 -64 38 -83z"/>
<path d="M4019 2261 c52 -97 5 -161 -120 -161 -49 0 -61 -7 -51 -32 7 -17 12
-35 12 -39 0 -19 122 -69 168 -69 129 0 179 188 76 286 -68 65 -116 74 -85 15z
m93 -56 c84 -110 -26 -257 -152 -205 -83 34 -94 80 -19 80 72 0 147 68 133
122 -13 47 3 49 38 3z"/>
<path d="M269 2216 c17 -25 31 -64 31 -87 0 -39 130 -105 156 -80 21 22 -25
135 -70 171 -76 59 -160 56 -117 -4z m131 -55 c11 -21 20 -47 20 -58 0 -32
-75 -2 -86 34 -5 18 -16 50 -25 70 -21 51 61 10 91 -46z"/>
<path d="M5604 2214 c-59 -63 -85 -186 -35 -167 19 7 56 19 83 25 32 8 48 27
48 56 0 24 14 63 31 88 46 65 -66 63 -127 -2z m71 -42 c-21 -70 -95 -115 -95
-59 0 26 85 127 107 127 5 0 0 -31 -12 -68z"/>
<path d="M1124 2220 c-93 -22 -95 -30 -16 -79 130 -80 396 -69 328 14 -60 72
-179 97 -312 65z m247 -48 c51 -37 31 -54 -64 -55 -88 -1 -187 32 -187 63 0
31 207 24 251 -8z"/>
<path d="M4650 2213 c-148 -67 -76 -156 103 -126 96 15 221 94 183 115 -58 32
-225 39 -286 11z m230 -33 c0 -30 -98 -64 -186 -65 -93 -1 -116 19 -65 57 44
32 251 39 251 8z"/>
<path d="M870 2186 c52 -125 10 -198 -104 -179 -93 15 -55 -57 44 -85 196 -54
361 141 205 242 -80 52 -163 65 -145 22z m124 -49 c94 -89 30 -197 -117 -197
-93 0 -117 31 -36 47 66 13 104 80 85 151 -14 54 9 53 68 -1z"/>
<path d="M2929 2179 c-44 -48 -22 -77 33 -42 32 19 48 20 69 2 33 -27 98 -9
79 21 -7 12 -24 19 -37 16 -12 -2 -42 6 -65 19 -36 20 -49 17 -79 -16z"/>
<path d="M5067 2206 c-59 -11 -147 -96 -147 -141 0 -89 144 -181 236 -152 121
38 191 115 86 94 -121 -24 -168 50 -113 178 9 19 8 34 -2 32 -9 -1 -37 -6 -60
-11z m3 -85 c-15 -68 43 -141 111 -141 23 0 36 -9 29 -20 -25 -41 -170 -22
-221 29 -54 55 -49 100 19 156 60 49 77 43 62 -24z"/>
<path d="M2705 2177 c-53 -53 -14 -137 64 -137 30 1 34 5 14 18 -15 9 -33 45
-40 80 -10 51 -18 59 -38 39z"/>
<path d="M3260 2160 c0 -22 -18 -58 -40 -80 -40 -40 -40 -40 8 -40 68 0 97 43
73 108 -24 62 -41 67 -41 12z"/>
<path d="M2202 2027 c-72 -102 -74 -173 -7 -268 l35 -49 13 80 c7 44 30 123
50 175 59 152 1 193 -91 62z m53 -88 c-47 -130 -75 -152 -75 -59 0 62 78 204
104 188 8 -5 -5 -63 -29 -129z"/>
<path d="M3693 2107 c-24 -25 -13 -95 35 -232 52 -151 86 -150 106 3 9 67 2
91 -41 143 -29 34 -53 70 -53 81 0 21 -27 24 -47 5z m118 -177 c6 -23 3 -62
-6 -88 -18 -49 -105 130 -105 215 0 41 94 -67 111 -127z"/>
<path d="M150 2000 c-28 -31 -30 -40 -8 -40 16 0 71 -22 122 -50 116 -62 276
-66 276 -8 0 101 -316 180 -390 98z m289 -40 c130 -92 -15 -111 -166 -22 -63
37 -88 61 -70 69 50 22 175 -3 236 -47z"/>
<path d="M5543 1980 c-89 -65 -101 -89 -51 -108 65 -25 161 -10 238 37 44 28
98 50 120 51 38 1 37 4 -7 41 -74 61 -199 52 -300 -21z m247 27 c25 -10 11
-26 -63 -69 -161 -95 -297 -67 -153 31 74 50 150 64 216 38z"/>
<path d="M2580 2000 c0 -11 37 -20 81 -20 49 0 76 8 69 20 -7 11 -43 20 -81
20 -38 0 -69 -9 -69 -20z"/>
<path d="M3260 2000 c-22 -14 -8 -19 54 -20 46 0 89 9 96 20 16 26 -110 26
-150 0z"/>
<path d="M2715 1927 c-41 -17 -75 -39 -75 -49 0 -33 61 -18 136 32 82 56 53
64 -61 17z"/>
<path d="M3042 1797 c-2 -159 1 -173 40 -183 32 -9 38 -4 28 22 -8 19 -26 102
-40 184 l-26 150 -2 -173z"/>
<path d="M3160 1952 c0 -18 136 -92 169 -92 50 0 18 37 -63 70 -71 30 -106 37
-106 22z"/>
<path d="M3900 1862 c0 -112 87 -242 162 -242 93 0 22 211 -100 299 l-62 44 0
-101z m108 -24 c35 -41 52 -85 52 -134 l0 -73 -59 59 c-59 60 -105 210 -65
210 11 0 44 -28 72 -62z"/>
<path d="M1971 1869 c-62 -62 -71 -82 -71 -171 l0 -100 62 36 c83 48 115 100
131 212 16 119 -20 126 -122 23z m69 -110 c-37 -89 -120 -136 -120 -68 0 109
122 257 137 166 3 -22 -4 -67 -17 -98z"/>
<path d="M2933 1927 c-7 -8 -13 -42 -13 -77 0 -35 -12 -104 -27 -153 -27 -90
-27 -90 20 -81 45 8 47 17 47 166 0 159 -2 169 -27 145z"/>
<path d="M2744 1763 c-57 -42 -144 -99 -194 -125 -102 -54 -106 -68 -50 -179
45 -87 53 -91 106 -50 35 26 35 28 -3 40 -103 33 -70 115 67 171 121 49 161
86 175 165 5 30 8 55 6 55 -2 0 -50 -35 -107 -77z m35 -53 c-16 -15 -65 -43
-109 -61 -89 -37 -78 -20 39 58 80 53 122 55 70 3z"/>
<path d="M3140 1809 c0 -83 44 -133 170 -189 141 -63 170 -117 86 -162 -42
-22 -10 -78 45 -78 12 0 72 123 84 173 3 13 -83 82 -190 153 -108 71 -195 117
-195 103z m215 -149 c80 -49 144 -103 144 -120 0 -22 -8 -20 -30 10 -17 22
-86 67 -154 100 -68 33 -127 72 -132 88 -10 34 -2 31 172 -78z"/>
<path d="M2665 1579 c-87 -38 -107 -72 -57 -91 30 -12 123 28 105 45 -5 6 -28
0 -51 -12 -25 -13 -42 -15 -42 -3 0 26 74 48 102 31 21 -13 57 22 58 56 0 21
-19 17 -115 -26z"/>
<path d="M3220 1580 c29 -55 113 -107 150 -93 54 21 32 54 -62 94 -113 48
-114 48 -88 -1z"/>
<path d="M2892 1548 c-7 -17 -12 -59 -12 -93 0 -37 -18 -82 -43 -109 -34 -36
-37 -46 -13 -46 51 0 132 77 146 139 20 93 -48 188 -78 109z"/>
<path d="M3033 1567 c-65 -66 32 -267 129 -267 42 0 42 1 -9 53 -41 41 -53 72
-53 140 0 82 -28 113 -67 74z m52 -134 c6 -68 4 -73 -19 -41 -28 39 -35 113
-11 136 17 17 20 8 30 -95z"/>
<path d="M2760 1463 c-49 -52 -110 -108 -134 -124 -43 -29 -43 -30 87 -209 72
-99 155 -227 183 -285 72 -144 123 -144 196 0 30 58 111 185 181 283 140 197
143 204 89 221 -21 7 -79 57 -130 111 -92 98 -92 98 -92 41 0 -92 21 -123 105
-161 l79 -35 -72 -24 c-39 -13 -90 -18 -112 -11 -60 19 -48 -5 21 -40 67 -35
62 -62 -18 -93 l-53 -20 50 -38 c54 -42 33 -78 -45 -79 -22 0 -35 -15 -35 -41
0 -23 -15 -69 -32 -104 l-33 -62 -27 48 c-14 27 -27 74 -27 104 -1 39 -11 55
-37 55 -80 0 -113 49 -52 77 l55 25 -68 41 c-71 44 -71 46 31 107 25 15 12 20
-59 22 -111 2 -164 39 -85 59 71 18 108 66 118 154 4 41 8 75 7 74 -1 0 -41
-44 -91 -96z m512 -98 c-18 -18 -92 38 -92 69 0 27 9 24 50 -14 27 -26 46 -51
42 -55z m-564 -104 c32 -12 47 -30 40 -48 -6 -16 12 -46 40 -68 46 -36 50 -65
11 -65 -9 0 -48 45 -87 100 -40 55 -68 100 -63 100 4 0 31 -9 59 -19z m620 -6
c-43 -74 -134 -174 -150 -164 -10 6 7 33 37 60 46 40 50 51 25 68 -24 16 -20
22 20 39 69 27 85 26 68 -3z"/>
<path d="M2285 1468 c-155 -130 -153 -154 12 -145 173 10 173 10 124 124 -47
110 -32 108 -136 21z m113 -41 c29 -64 30 -64 -85 -80 -111 -15 -119 7 -31 81
76 65 86 65 116 -1z"/>
<path d="M3566 1445 c-53 -114 -59 -108 113 -120 170 -12 173 -1 42 122 -120
112 -102 112 -155 -2z m154 -35 l68 -70 -52 0 c-142 0 -177 20 -145 82 38 74
47 73 129 -12z"/>
<path d="M2923 1247 c-77 -80 -72 -101 18 -70 45 16 75 16 103 1 86 -46 102
-1 25 72 -41 38 -76 69 -77 69 -1 -1 -32 -33 -69 -72z m102 -2 c30 -33 27 -35
-36 -36 -65 -2 -67 0 -36 35 40 44 34 44 72 1z"/>
<path d="M2073 1265 c-63 -103 -14 -277 99 -346 81 -50 115 -106 98 -160 -17
-54 51 -53 101 2 50 55 25 93 -108 166 -131 71 -171 130 -171 255 0 99 -2 110
-19 83z m277 -456 c0 -64 -40 -51 -62 22 -22 69 -22 70 20 42 23 -15 42 -44
42 -64z"/>
<path d="M3896 1161 c-12 -119 -53 -172 -196 -247 -101 -53 -129 -123 -68
-168 68 -49 98 -32 99 56 1 72 -2 77 -25 46 -14 -20 -26 -47 -26 -62 0 -37
-39 -32 -54 7 -16 42 66 112 113 97 105 -33 248 229 186 340 -15 27 -22 12
-29 -69z"/>
<path d="M2360 1141 c0 -67 -20 -84 -119 -101 l-71 -11 100 -58 c55 -32 115
-70 133 -86 50 -42 146 -25 153 28 5 34 -9 48 -65 67 -63 20 -67 26 -41 53 57
56 33 122 -55 153 -28 10 -35 1 -35 -45z m100 -44 c0 -9 -18 -33 -40 -52 -56
-48 -50 -85 15 -85 68 -1 115 -28 96 -58 -22 -36 -62 -26 -170 41 l-103 64 61
25 c36 16 65 45 73 77 12 50 68 40 68 -12z"/>
<path d="M3568 1179 c-59 -22 -75 -76 -38 -132 29 -44 29 -49 -4 -59 -71 -22
-96 -43 -96 -80 0 -58 116 -62 185 -7 30 23 91 64 135 90 l80 48 -61 0 c-78 1
-145 49 -153 109 -5 39 -13 44 -48 31z m36 -64 c3 -27 32 -58 71 -78 l65 -32
-58 -24 c-33 -14 -75 -42 -94 -63 -33 -37 -108 -51 -134 -25 -25 25 31 67 87
67 74 0 88 26 39 70 -40 36 -52 91 -27 117 25 25 44 13 51 -32z"/>
<path d="M2936 1091 c-61 -54 -54 -77 16 -50 29 11 67 11 98 -1 63 -24 64 0 4
57 -57 52 -52 53 -118 -6z"/>
<path d="M2932 662 c-69 -76 52 -170 124 -98 36 36 29 92 -15 115 -54 29 -70
27 -109 -17z m119 -24 c20 -32 -38 -82 -77 -67 -35 14 -45 52 -21 76 21 21 83
15 98 -9z"/>
<path d="M2713 567 c-28 -29 -11 -106 31 -136 65 -45 127 -38 164 18 46 71 41
76 -49 61 -72 -12 -83 -9 -93 28 -11 43 -29 53 -53 29z m113 -87 c37 0 54 -9
48 -25 -17 -49 -154 -3 -154 51 0 14 8 14 24 -2 13 -13 50 -24 82 -24z"/>
<path d="M3240 554 c0 -40 -47 -56 -120 -41 -69 14 -73 5 -28 -64 59 -89 217
-38 204 66 -6 55 -56 89 -56 39z m19 -84 c-38 -37 -122 -47 -133 -15 -6 15 9
25 37 25 26 0 60 9 76 19 41 26 55 6 20 -29z"/>
<path d="M2945 401 c-69 -58 -27 -281 53 -281 84 0 124 214 52 276 -60 52 -49
52 -105 5z m116 -64 c15 -27 12 -56 -13 -108 -40 -85 -68 -80 -106 18 -45 120
60 201 119 90z"/>
</g>
</svg>
