<svg xmlns="http://www.w3.org/2000/svg" viewBox="0 0 500 500"><g id="freepik--background-simple--inject-11"><path d="M466.37,182.27c-4-52.19-39.09-96.13-82.71-122.43a227.5,227.5,0,0,0-141.56-31C174.45,36.44,84.31,79.78,89,159.62c.85,14.44,4.92,28.87,2.8,43.18-3.82,25.8-26.1,44.14-40.95,65.59A125.52,125.52,0,0,0,28.9,346.57c1.82,30.82,17.82,62.92,46.48,74.43s61.16.08,92.11,1.22c50.15,1.86,93.41,36.59,142.84,45.23a142.06,142.06,0,0,0,105.44-23.84c14.1-10,26.56-23,33.08-39.05,16.41-40.33-8.24-86.23-1.75-129.29,4.47-29.61,20.34-55.47,19.61-86.12Q466.62,185.69,466.37,182.27Z" style="fill:#4BAF95"></path><path d="M466.37,182.27c-4-52.19-39.09-96.13-82.71-122.43a227.5,227.5,0,0,0-141.56-31C174.45,36.44,84.31,79.78,89,159.62c.85,14.44,4.92,28.87,2.8,43.18-3.82,25.8-26.1,44.14-40.95,65.59A125.52,125.52,0,0,0,28.9,346.57c1.82,30.82,17.82,62.92,46.48,74.43s61.16.08,92.11,1.22c50.15,1.86,93.41,36.59,142.84,45.23a142.06,142.06,0,0,0,105.44-23.84c14.1-10,26.56-23,33.08-39.05,16.41-40.33-8.24-86.23-1.75-129.29,4.47-29.61,20.34-55.47,19.61-86.12Q466.62,185.69,466.37,182.27Z" style="fill:#fff;opacity:0.7000000000000001"></path></g><g id="freepik--Floor--inject-11"><line x1="464.42" y1="465" x2="477" y2="465" style="fill:none;stroke:#263238;stroke-linecap:round;stroke-linejoin:round"></line><line x1="31" y1="465" x2="457.29" y2="465" style="fill:none;stroke:#263238;stroke-linecap:round;stroke-linejoin:round"></line></g><g id="freepik--Plant--inject-11"><line x1="43.04" y1="288.7" x2="56.94" y2="421.95" style="fill:none;stroke:#263238;stroke-miterlimit:10;stroke-width:2px"></line><line x1="54.7" y1="396.45" x2="48.4" y2="389.79" style="fill:none;stroke:#263238;stroke-miterlimit:10;stroke-width:2px"></line><path d="M50.31,391.78a7.13,7.13,0,0,0-2.51-5.34c-1.61-1.45-10.13-5-10.94-2C36,387.67,44.7,394.08,50.31,391.78Z" style="fill:#4BAF95;stroke:#263238;stroke-miterlimit:10"></path><line x1="50.31" y1="391.78" x2="42.21" y2="386.73" style="fill:none;stroke:#263238;stroke-miterlimit:10;stroke-width:0.5px"></line><line x1="56.28" y1="411.6" x2="49.98" y2="404.94" style="fill:none;stroke:#263238;stroke-miterlimit:10;stroke-width:2px"></line><path d="M51.89,406.94a7.14,7.14,0,0,0-2.51-5.35c-1.61-1.44-10.13-5-10.94-2C37.56,402.82,46.28,409.23,51.89,406.94Z" style="fill:#4BAF95;stroke:#263238;stroke-miterlimit:10"></path><line x1="51.89" y1="406.94" x2="43.79" y2="401.89" style="fill:none;stroke:#263238;stroke-miterlimit:10;stroke-width:0.5px"></line><line x1="50.84" y1="359.47" x2="44.54" y2="352.81" style="fill:none;stroke:#263238;stroke-miterlimit:10;stroke-width:2px"></line><path d="M46.45,354.81a7.14,7.14,0,0,0-2.51-5.35c-1.61-1.45-10.13-5-10.94-2C32.12,350.69,40.84,357.1,46.45,354.81Z" style="fill:#4BAF95;stroke:#263238;stroke-miterlimit:10"></path><line x1="46.45" y1="354.81" x2="38.35" y2="349.75" style="fill:none;stroke:#263238;stroke-miterlimit:10;stroke-width:0.5px"></line><line x1="52.42" y1="374.62" x2="46.12" y2="367.97" style="fill:none;stroke:#263238;stroke-miterlimit:10;stroke-width:2px"></line><path d="M48,370a7.12,7.12,0,0,0-2.5-5.35c-1.62-1.44-10.14-5-11-2C33.71,365.85,42.42,372.25,48,370Z" style="fill:#4BAF95;stroke:#263238;stroke-miterlimit:10"></path><line x1="48.03" y1="369.96" x2="39.93" y2="364.91" style="fill:none;stroke:#263238;stroke-miterlimit:10;stroke-width:0.5px"></line><line x1="48.27" y1="334.85" x2="41.97" y2="328.2" style="fill:none;stroke:#263238;stroke-miterlimit:10;stroke-width:2px"></line><path d="M43.88,330.19a7.16,7.16,0,0,0-2.5-5.35c-1.62-1.44-10.14-5-11-2C29.55,326.08,38.27,332.48,43.88,330.19Z" style="fill:#4BAF95;stroke:#263238;stroke-miterlimit:10"></path><line x1="43.88" y1="330.19" x2="35.78" y2="325.14" style="fill:none;stroke:#263238;stroke-miterlimit:10;stroke-width:0.5px"></line><line x1="45.69" y1="310.13" x2="39.39" y2="303.47" style="fill:none;stroke:#263238;stroke-miterlimit:10;stroke-width:2px"></line><path d="M41.3,305.47a7.15,7.15,0,0,0-2.5-5.35c-1.62-1.44-10.14-5-10.95-2C27,301.35,35.69,307.76,41.3,305.47Z" style="fill:#4BAF95;stroke:#263238;stroke-miterlimit:10"></path><line x1="41.3" y1="305.47" x2="33.2" y2="300.42" style="fill:none;stroke:#263238;stroke-miterlimit:10;stroke-width:0.5px"></line><line x1="53.64" y1="387.48" x2="58.43" y2="379.67" style="fill:none;stroke:#263238;stroke-miterlimit:10;stroke-width:2px"></line><path d="M57,382a7.16,7.16,0,0,1,1.35-5.75c1.29-1.75,8.88-7,10.29-4.24C70.14,375,62.94,383.1,57,382Z" style="fill:#4BAF95;stroke:#263238;stroke-miterlimit:10"></path><line x1="56.97" y1="382.01" x2="64.27" y2="375.04" style="fill:none;stroke:#263238;stroke-miterlimit:10;stroke-width:0.5px"></line><line x1="49.48" y1="347.61" x2="54.27" y2="339.79" style="fill:none;stroke:#263238;stroke-miterlimit:10;stroke-width:2px"></line><path d="M52.81,342.14a7.16,7.16,0,0,1,1.35-5.75c1.29-1.75,8.88-7,10.29-4.25C66,335.15,58.78,343.22,52.81,342.14Z" style="fill:#4BAF95;stroke:#263238;stroke-miterlimit:10"></path><line x1="52.81" y1="342.14" x2="60.11" y2="335.16" style="fill:none;stroke:#263238;stroke-miterlimit:10;stroke-width:0.5px"></line><line x1="47.65" y1="330.08" x2="52.44" y2="322.26" style="fill:none;stroke:#263238;stroke-miterlimit:10;stroke-width:2px"></line><path d="M51,324.61a7.16,7.16,0,0,1,1.35-5.75c1.29-1.75,8.88-7,10.29-4.24C64.15,317.63,57,325.7,51,324.61Z" style="fill:#4BAF95;stroke:#263238;stroke-miterlimit:10"></path><line x1="50.98" y1="324.61" x2="58.28" y2="317.63" style="fill:none;stroke:#263238;stroke-miterlimit:10;stroke-width:0.5px"></line><line x1="44.97" y1="304.39" x2="49.76" y2="296.57" style="fill:none;stroke:#263238;stroke-miterlimit:10;stroke-width:2px"></line><path d="M48.3,298.92a7.16,7.16,0,0,1,1.35-5.75c1.29-1.75,8.88-7,10.29-4.24C61.47,291.94,54.27,300,48.3,298.92Z" style="fill:#4BAF95;stroke:#263238;stroke-miterlimit:10"></path><line x1="48.3" y1="298.92" x2="55.6" y2="291.94" style="fill:none;stroke:#263238;stroke-miterlimit:10;stroke-width:0.5px"></line><path d="M42.92,288a7.16,7.16,0,0,1,1.35-5.75c1.29-1.75,8.88-7,10.29-4.25C56.09,281,48.89,289.05,42.92,288Z" style="fill:#4BAF95;stroke:#263238;stroke-miterlimit:10"></path><line x1="42.92" y1="287.97" x2="50.22" y2="280.99" style="fill:none;stroke:#263238;stroke-miterlimit:10;stroke-width:0.5px"></line><path d="M43.34,288.27a7.13,7.13,0,0,1-5.57-1.95c-1.61-1.46-6.05-9.56-3.15-10.68C37.78,274.43,45.05,282.45,43.34,288.27Z" style="fill:#4BAF95;stroke:#263238;stroke-miterlimit:10"></path><line x1="43.34" y1="288.27" x2="37.17" y2="280.27" style="fill:none;stroke:#263238;stroke-miterlimit:10;stroke-width:0.5px"></line><line x1="79.71" y1="307.05" x2="65.89" y2="440.3" style="fill:none;stroke:#263238;stroke-miterlimit:10;stroke-width:2px"></line><line x1="68.94" y1="414.89" x2="64.14" y2="407.08" style="fill:none;stroke:#263238;stroke-miterlimit:10;stroke-width:2px"></line><path d="M65.61,409.42a7.15,7.15,0,0,0-1.36-5.75c-1.28-1.74-8.88-7-10.29-4.23C52.43,402.45,59.64,410.51,65.61,409.42Z" style="fill:#4BAF95;stroke:#263238;stroke-miterlimit:10"></path><line x1="65.61" y1="409.42" x2="58.72" y2="402.81" style="fill:none;stroke:#263238;stroke-miterlimit:10;stroke-width:0.5px"></line><line x1="72.78" y1="377.91" x2="67.98" y2="370.1" style="fill:none;stroke:#263238;stroke-miterlimit:10;stroke-width:2px"></line><path d="M69.45,372.44a7.15,7.15,0,0,0-1.36-5.75c-1.28-1.74-8.88-7-10.29-4.23C56.27,365.47,63.48,373.53,69.45,372.44Z" style="fill:#4BAF95;stroke:#263238;stroke-miterlimit:10"></path><line x1="69.45" y1="372.44" x2="62.55" y2="365.83" style="fill:none;stroke:#263238;stroke-miterlimit:10;stroke-width:0.5px"></line><line x1="71.21" y1="393.06" x2="66.41" y2="385.25" style="fill:none;stroke:#263238;stroke-miterlimit:10;stroke-width:2px"></line><path d="M67.87,387.6a7.11,7.11,0,0,0-1.35-5.75c-1.29-1.75-8.88-7-10.29-4.24C54.7,380.62,61.91,388.69,67.87,387.6Z" style="fill:#4BAF95;stroke:#263238;stroke-miterlimit:10"></path><line x1="67.87" y1="387.6" x2="60.98" y2="380.99" style="fill:none;stroke:#263238;stroke-miterlimit:10;stroke-width:0.5px"></line><line x1="75.33" y1="353.29" x2="70.54" y2="345.48" style="fill:none;stroke:#263238;stroke-miterlimit:10;stroke-width:2px"></line><path d="M72,347.83a7.16,7.16,0,0,0-1.35-5.75c-1.29-1.75-8.89-7-10.29-4.24C58.82,340.85,66,348.91,72,347.83Z" style="fill:#4BAF95;stroke:#263238;stroke-miterlimit:10"></path><line x1="72" y1="347.83" x2="65.11" y2="341.21" style="fill:none;stroke:#263238;stroke-miterlimit:10;stroke-width:0.5px"></line><line x1="77.9" y1="328.57" x2="73.1" y2="320.76" style="fill:none;stroke:#263238;stroke-miterlimit:10;stroke-width:2px"></line><path d="M74.57,323.1a7.15,7.15,0,0,0-1.36-5.75c-1.28-1.74-8.88-7-10.29-4.23C61.39,316.13,68.6,324.19,74.57,323.1Z" style="fill:#4BAF95;stroke:#263238;stroke-miterlimit:10"></path><line x1="74.57" y1="323.1" x2="67.67" y2="316.49" style="fill:none;stroke:#263238;stroke-miterlimit:10;stroke-width:0.5px"></line><line x1="69.75" y1="405.9" x2="76.05" y2="399.24" style="fill:none;stroke:#263238;stroke-miterlimit:10;stroke-width:2px"></line><path d="M74.14,401.23a7.16,7.16,0,0,1,2.5-5.35c1.62-1.44,10.13-5,10.94-2C88.47,397.11,79.75,403.52,74.14,401.23Z" style="fill:#4BAF95;stroke:#263238;stroke-miterlimit:10"></path><line x1="74.14" y1="401.23" x2="82.72" y2="395.91" style="fill:none;stroke:#263238;stroke-miterlimit:10;stroke-width:0.5px"></line><line x1="73.89" y1="366.02" x2="80.19" y2="359.36" style="fill:none;stroke:#263238;stroke-miterlimit:10;stroke-width:2px"></line><path d="M78.28,361.35a7.12,7.12,0,0,1,2.5-5.35c1.62-1.44,10.13-5,10.94-2C92.6,357.23,83.89,363.64,78.28,361.35Z" style="fill:#4BAF95;stroke:#263238;stroke-miterlimit:10"></path><line x1="78.28" y1="361.35" x2="86.86" y2="356.03" style="fill:none;stroke:#263238;stroke-miterlimit:10;stroke-width:0.5px"></line><line x1="75.71" y1="348.49" x2="82.01" y2="341.83" style="fill:none;stroke:#263238;stroke-miterlimit:10;stroke-width:2px"></line><path d="M80.09,343.83a7.14,7.14,0,0,1,2.51-5.35c1.62-1.45,10.13-5,10.94-2C94.42,339.71,85.71,346.12,80.09,343.83Z" style="fill:#4BAF95;stroke:#263238;stroke-miterlimit:10"></path><line x1="80.09" y1="343.83" x2="88.67" y2="338.5" style="fill:none;stroke:#263238;stroke-miterlimit:10;stroke-width:0.5px"></line><line x1="78.37" y1="322.8" x2="84.67" y2="316.14" style="fill:none;stroke:#263238;stroke-miterlimit:10;stroke-width:2px"></line><path d="M82.76,318.14a7.14,7.14,0,0,1,2.51-5.35c1.61-1.45,10.13-5,10.94-2C97.09,314,88.38,320.43,82.76,318.14Z" style="fill:#4BAF95;stroke:#263238;stroke-miterlimit:10"></path><line x1="82.76" y1="318.14" x2="91.34" y2="312.81" style="fill:none;stroke:#263238;stroke-miterlimit:10;stroke-width:0.5px"></line><path d="M79.75,306.31A7.14,7.14,0,0,1,82.26,301c1.61-1.45,10.13-5,10.94-2C94.08,302.18,85.36,308.6,79.75,306.31Z" style="fill:#4BAF95;stroke:#263238;stroke-miterlimit:10"></path><line x1="79.75" y1="306.31" x2="88.33" y2="300.98" style="fill:none;stroke:#263238;stroke-miterlimit:10;stroke-width:0.5px"></line><path d="M80.1,306.69a7.13,7.13,0,0,1-5-3.05c-1.27-1.76-4-10.61-.88-11.1C77.51,292,83,301.34,80.1,306.69Z" style="fill:#4BAF95;stroke:#263238;stroke-miterlimit:10"></path><line x1="80.1" y1="306.69" x2="75.71" y2="297.6" style="fill:none;stroke:#263238;stroke-miterlimit:10;stroke-width:0.5px"></line><line x1="63.87" y1="252.8" x2="63.87" y2="421.3" style="fill:none;stroke:#263238;stroke-miterlimit:10;stroke-width:2px"></line><line x1="64" y1="395.96" x2="58.42" y2="388.69" style="fill:none;stroke:#263238;stroke-miterlimit:10;stroke-width:2px"></line><path d="M60.12,390.87a7.12,7.12,0,0,0-1.94-5.58c-1.46-1.61-9.56-6.05-10.67-3.15C46.3,385.29,54.3,392.57,60.12,390.87Z" style="fill:#4BAF95;stroke:#263238;stroke-miterlimit:10"></path><line x1="60.12" y1="390.87" x2="52.58" y2="385" style="fill:none;stroke:#263238;stroke-miterlimit:10;stroke-width:0.5px"></line><line x1="64" y1="364.3" x2="58.42" y2="357.02" style="fill:none;stroke:#263238;stroke-miterlimit:10;stroke-width:2px"></line><path d="M60.12,359.2a7.12,7.12,0,0,0-1.94-5.58c-1.46-1.6-9.56-6.05-10.67-3.15C46.3,353.62,54.3,360.9,60.12,359.2Z" style="fill:#4BAF95;stroke:#263238;stroke-miterlimit:10"></path><line x1="60.12" y1="359.2" x2="52.58" y2="353.34" style="fill:none;stroke:#263238;stroke-miterlimit:10;stroke-width:0.5px"></line><line x1="64" y1="327.12" x2="58.42" y2="319.84" style="fill:none;stroke:#263238;stroke-miterlimit:10;stroke-width:2px"></line><path d="M60.12,322a7.09,7.09,0,0,0-1.94-5.57c-1.46-1.61-9.56-6.06-10.67-3.16C46.3,316.45,54.3,323.72,60.12,322Z" style="fill:#4BAF95;stroke:#263238;stroke-miterlimit:10"></path><line x1="60.12" y1="322.02" x2="52.58" y2="316.16" style="fill:none;stroke:#263238;stroke-miterlimit:10;stroke-width:0.5px"></line><line x1="64" y1="302.37" x2="58.42" y2="295.09" style="fill:none;stroke:#263238;stroke-miterlimit:10;stroke-width:2px"></line><path d="M60.12,297.27a7.09,7.09,0,0,0-1.94-5.57c-1.46-1.61-9.56-6.06-10.67-3.16C46.3,291.7,54.3,299,60.12,297.27Z" style="fill:#4BAF95;stroke:#263238;stroke-miterlimit:10"></path><line x1="60.12" y1="297.27" x2="52.58" y2="291.41" style="fill:none;stroke:#263238;stroke-miterlimit:10;stroke-width:0.5px"></line><line x1="64" y1="277.51" x2="58.42" y2="270.23" style="fill:none;stroke:#263238;stroke-miterlimit:10;stroke-width:2px"></line><path d="M60.12,272.42a7.12,7.12,0,0,0-1.94-5.58c-1.46-1.61-9.56-6-10.67-3.15C46.3,266.84,54.3,274.12,60.12,272.42Z" style="fill:#4BAF95;stroke:#263238;stroke-miterlimit:10"></path><line x1="60.12" y1="272.42" x2="52.58" y2="266.55" style="fill:none;stroke:#263238;stroke-miterlimit:10;stroke-width:0.5px"></line><line x1="63.88" y1="405.63" x2="69.46" y2="398.35" style="fill:none;stroke:#263238;stroke-miterlimit:10;stroke-width:2px"></line><path d="M67.76,400.54A7.12,7.12,0,0,1,69.7,395c1.46-1.61,9.56-6,10.67-3.15C81.58,395,73.58,402.24,67.76,400.54Z" style="fill:#4BAF95;stroke:#263238;stroke-miterlimit:10"></path><line x1="67.76" y1="400.54" x2="75.74" y2="394.36" style="fill:none;stroke:#263238;stroke-miterlimit:10;stroke-width:0.5px"></line><line x1="63.88" y1="355.27" x2="69.46" y2="347.99" style="fill:none;stroke:#263238;stroke-miterlimit:10;stroke-width:2px"></line><path d="M67.76,350.17a7.09,7.09,0,0,1,1.94-5.57c1.46-1.61,9.56-6.06,10.67-3.16C81.58,344.6,73.58,351.87,67.76,350.17Z" style="fill:#4BAF95;stroke:#263238;stroke-miterlimit:10"></path><line x1="67.76" y1="350.17" x2="75.74" y2="343.99" style="fill:none;stroke:#263238;stroke-miterlimit:10;stroke-width:0.5px"></line><line x1="63.88" y1="330.41" x2="69.46" y2="323.13" style="fill:none;stroke:#263238;stroke-miterlimit:10;stroke-width:2px"></line><path d="M67.76,325.32a7.12,7.12,0,0,1,1.94-5.58c1.46-1.61,9.56-6.05,10.67-3.15C81.58,319.74,73.58,327,67.76,325.32Z" style="fill:#4BAF95;stroke:#263238;stroke-miterlimit:10"></path><line x1="67.76" y1="325.32" x2="75.74" y2="319.14" style="fill:none;stroke:#263238;stroke-miterlimit:10;stroke-width:0.5px"></line><line x1="63.88" y1="297.56" x2="69.46" y2="290.28" style="fill:none;stroke:#263238;stroke-miterlimit:10;stroke-width:2px"></line><path d="M67.76,292.46a7.12,7.12,0,0,1,1.94-5.58c1.46-1.6,9.56-6.05,10.67-3.15C81.58,286.88,73.58,294.16,67.76,292.46Z" style="fill:#4BAF95;stroke:#263238;stroke-miterlimit:10"></path><line x1="67.76" y1="292.46" x2="75.74" y2="286.28" style="fill:none;stroke:#263238;stroke-miterlimit:10;stroke-width:0.5px"></line><line x1="63.88" y1="271.73" x2="69.46" y2="264.45" style="fill:none;stroke:#263238;stroke-miterlimit:10;stroke-width:2px"></line><path d="M67.76,266.63a7.12,7.12,0,0,1,1.94-5.58c1.46-1.6,9.56-6.05,10.67-3.15C81.58,261.05,73.58,268.33,67.76,266.63Z" style="fill:#4BAF95;stroke:#263238;stroke-miterlimit:10"></path><line x1="67.76" y1="266.63" x2="75.74" y2="260.45" style="fill:none;stroke:#263238;stroke-miterlimit:10;stroke-width:0.5px"></line><path d="M63.54,255.18a7.17,7.17,0,0,1,1.94-5.58c1.46-1.61,9.56-6,10.68-3.16C77.37,249.6,69.37,256.87,63.54,255.18Z" style="fill:#4BAF95;stroke:#263238;stroke-miterlimit:10"></path><line x1="63.54" y1="255.18" x2="71.53" y2="248.99" style="fill:none;stroke:#263238;stroke-miterlimit:10;stroke-width:0.5px"></line><path d="M63.93,255.52A7.13,7.13,0,0,1,58.59,253c-1.44-1.62-5-10.14-2-10.95C59.84,241.19,66.23,249.91,63.93,255.52Z" style="fill:#4BAF95;stroke:#263238;stroke-miterlimit:10"></path><line x1="63.93" y1="255.52" x2="58.62" y2="246.93" style="fill:none;stroke:#263238;stroke-miterlimit:10;stroke-width:0.5px"></line><polygon points="70.8 465 52.95 465 50.72 419.93 73.03 419.93 70.8 465" style="fill:#263238;stroke:#263238;stroke-miterlimit:10"></polygon></g><g id="freepik--Clouds--inject-11"><path d="M171.42,31.89a24.35,24.35,0,0,0-3,7.87,25,25,0,0,0-3.26-.22,24.55,24.55,0,0,0-21.53,36.35" style="fill:none;stroke:#263238;stroke-linecap:round;stroke-linejoin:round"></path><path d="M227.4,53.79a19.16,19.16,0,0,0-11-3.72,24.54,24.54,0,0,0-43-21" style="fill:none;stroke:#263238;stroke-linecap:round;stroke-linejoin:round"></path><path d="M145.89,79.3a24.56,24.56,0,0,0,13.28,8.6h62.11a19.29,19.29,0,0,0,10.2-30.06" style="fill:none;stroke:#263238;stroke-linecap:round;stroke-linejoin:round"></path><path d="M269.21,43.73A24.55,24.55,0,0,0,277,87.9h62.11a19.09,19.09,0,0,0,6.09-3" style="fill:none;stroke:#263238;stroke-linecap:round;stroke-linejoin:round"></path><path d="M332.84,34.74a24.55,24.55,0,0,0-46.65,5,25,25,0,0,0-3.26-.22,24.51,24.51,0,0,0-8.76,1.61" style="fill:none;stroke:#263238;stroke-linecap:round;stroke-linejoin:round"></path><path d="M348.45,81.87a19.28,19.28,0,0,0-14.27-31.8,24.78,24.78,0,0,0-.08-11.61" style="fill:none;stroke:#263238;stroke-linecap:round;stroke-linejoin:round"></path><line x1="188" y1="208.4" x2="188" y2="106" style="fill:none;stroke:#263238;stroke-linecap:round;stroke-linejoin:round"></line><line x1="239" y1="64" x2="249" y2="64" style="fill:#fff;stroke:#263238;stroke-linecap:round;stroke-linejoin:round"></line><line x1="305" y1="90" x2="305" y2="113.47" style="fill:#fff;stroke:#263238;stroke-linecap:round;stroke-linejoin:round"></line><rect x="168.97" y="134.02" width="36.06" height="35.96" style="fill:#263238;stroke:#263238;stroke-linecap:round;stroke-linejoin:round"></rect><polygon points="196.67 153.89 179.04 143.71 179.04 164.06 196.67 153.89" style="fill:#fff;stroke:#263238;stroke-linecap:round;stroke-linejoin:round"></polygon><rect x="168.97" y="134.02" width="36.06" height="6.59" style="fill:#fff;stroke:#263238;stroke-linecap:round;stroke-linejoin:round"></rect><polygon points="168.98 140.61 174.15 140.61 177.35 134.02 172.18 134.02 168.98 140.61" style="fill:#263238;stroke:#263238;stroke-linecap:round;stroke-linejoin:round"></polygon><polygon points="205.03 136.91 205.03 134.02 201.26 134.02 198.07 140.61 203.24 140.61 205.03 136.91" style="fill:#263238;stroke:#263238;stroke-linecap:round;stroke-linejoin:round"></polygon><polygon points="187.04 134.02 181.87 134.02 178.68 140.61 183.85 140.61 187.04 134.02" style="fill:#263238;stroke:#263238;stroke-linecap:round;stroke-linejoin:round"></polygon><polygon points="196.74 134.02 191.57 134.02 188.37 140.61 193.54 140.61 196.74 134.02" style="fill:#263238;stroke:#263238;stroke-linecap:round;stroke-linejoin:round"></polygon><rect x="287.97" y="45.02" width="36.06" height="35.96" style="fill:#263238;stroke:#263238;stroke-linecap:round;stroke-linejoin:round"></rect><polygon points="315.67 64.89 298.05 54.71 298.05 75.06 315.67 64.89" style="fill:#fff;stroke:#263238;stroke-linecap:round;stroke-linejoin:round"></polygon><rect x="287.97" y="45.02" width="36.06" height="6.59" style="fill:#fff;stroke:#263238;stroke-linecap:round;stroke-linejoin:round"></rect><polygon points="287.98 51.61 293.15 51.61 296.35 45.02 291.18 45.02 287.98 51.61" style="fill:#263238;stroke:#263238;stroke-linecap:round;stroke-linejoin:round"></polygon><polygon points="324.03 47.91 324.03 45.02 320.26 45.02 317.07 51.61 322.24 51.61 324.03 47.91" style="fill:#263238;stroke:#263238;stroke-linecap:round;stroke-linejoin:round"></polygon><polygon points="306.04 45.02 300.87 45.02 297.68 51.61 302.85 51.61 306.04 45.02" style="fill:#263238;stroke:#263238;stroke-linecap:round;stroke-linejoin:round"></polygon><polygon points="315.74 45.02 310.57 45.02 307.37 51.61 312.54 51.61 315.74 45.02" style="fill:#263238;stroke:#263238;stroke-linecap:round;stroke-linejoin:round"></polygon></g><g id="freepik--Window--inject-11"><path d="M258.31,141.26H437.42a11,11,0,0,1,11,11v267a0,0,0,0,1,0,0H247.33a0,0,0,0,1,0,0v-267a11,11,0,0,1,11-11Z" style="fill:#fff;stroke:#263238;stroke-linecap:round;stroke-linejoin:round"></path><path d="M437.42,141.26H304.05v31H448.4V152.23A11,11,0,0,0,437.42,141.26Z" style="fill:#263238;stroke:#263238;stroke-linecap:round;stroke-linejoin:round"></path><path d="M437.42,141.26H258.31a11,11,0,0,0-11,11v8H448.4v-8A11,11,0,0,0,437.42,141.26Z" style="fill:#263238;stroke:#263238;stroke-linecap:round;stroke-linejoin:round"></path><circle cx="421.38" cy="151.05" r="3" style="fill:#fff;stroke:#263238;stroke-linecap:round;stroke-linejoin:round"></circle><circle cx="430.71" cy="151.05" r="3" style="fill:#fff;stroke:#263238;stroke-linecap:round;stroke-linejoin:round"></circle><circle cx="440.04" cy="151.05" r="3" style="fill:#fff;stroke:#263238;stroke-linecap:round;stroke-linejoin:round"></circle><rect x="267.08" y="198" width="88.8" height="57.5" style="fill:#263238;stroke:#263238;stroke-linecap:round;stroke-linejoin:round"></rect><rect x="267.08" y="248.47" width="88.8" height="7.04" style="fill:#fff;stroke:#263238;stroke-linecap:round;stroke-linejoin:round"></rect><polygon points="322.27 224.57 304.65 214.4 304.65 234.75 322.27 224.57" style="fill:#fff;stroke:#263238;stroke-linecap:round;stroke-linejoin:round"></polygon><path d="M351.91,252.92H271a1,1,0,0,1,0-2h81a1,1,0,0,1,0,2Z" style="fill:#263238"></path><rect x="267.08" y="270.34" width="88.8" height="57.5" style="fill:#263238;stroke:#263238;stroke-linecap:round;stroke-linejoin:round"></rect><rect x="267.08" y="320.81" width="88.8" height="7.04" style="fill:#fff;stroke:#263238;stroke-linecap:round;stroke-linejoin:round"></rect><polygon points="322.27 296.91 304.65 286.74 304.65 307.09 322.27 296.91" style="fill:#fff;stroke:#263238;stroke-linecap:round;stroke-linejoin:round"></polygon><path d="M351.91,325.25H271a1,1,0,0,1,0-2h81a1,1,0,1,1,0,2Z" style="fill:#263238"></path><rect x="267.08" y="342.67" width="88.8" height="57.5" style="fill:#263238;stroke:#263238;stroke-linecap:round;stroke-linejoin:round"></rect><rect x="267.08" y="393.14" width="88.8" height="7.04" style="fill:#fff;stroke:#263238;stroke-linecap:round;stroke-linejoin:round"></rect><polygon points="322.27 369.25 304.65 359.07 304.65 379.42 322.27 369.25" style="fill:#fff;stroke:#263238;stroke-linecap:round;stroke-linejoin:round"></polygon><path d="M351.91,397.59H271a1,1,0,0,1,0-2h81a1,1,0,0,1,0,2Z" style="fill:#263238"></path><rect x="360.5" y="203.59" width="55.5" height="6.5" style="fill:#ccc"></rect><rect x="360.5" y="217.59" width="75.5" height="6.5" style="fill:#ccc"></rect><rect x="360.5" y="231.59" width="75.5" height="6.5" style="fill:#ccc"></rect><rect x="360.5" y="278.09" width="55.5" height="6.5" style="fill:#ccc"></rect><rect x="360.5" y="292.09" width="75.5" height="6.5" style="fill:#ccc"></rect><rect x="360.5" y="306.09" width="75.5" height="6.5" style="fill:#ccc"></rect><rect x="360.5" y="352.59" width="55.5" height="6.5" style="fill:#ccc"></rect><rect x="360.5" y="366.59" width="75.5" height="6.5" style="fill:#ccc"></rect><rect x="360.5" y="380.59" width="75.5" height="6.5" style="fill:#ccc"></rect></g><g id="freepik--Arrows--inject-11"><polyline points="204.74 337.39 200.67 331.61 183.24 356.43 191.81 356.43 191.81 374.16 198.83 374.16" style="fill:none;stroke:#263238;stroke-linecap:round;stroke-linejoin:round"></polyline><polyline points="202.55 374.16 209.54 374.16 209.54 356.43 218.11 356.43 206.15 339.41" style="fill:none;stroke:#263238;stroke-linecap:round;stroke-linejoin:round"></polyline><polygon points="232.33 249.1 221.45 233.61 210.57 249.1 215.92 249.1 215.92 260.17 226.98 260.17 226.98 249.1 232.33 249.1" style="fill:none;stroke:#263238;stroke-linecap:round;stroke-linejoin:round"></polygon><polyline points="397.21 80.39 403.33 71.67 397.98 71.67 397.98 60.61 386.92 60.61 386.92 71.67 381.57 71.67 392.45 87.17 395.11 83.38" style="fill:none;stroke:#263238;stroke-linecap:round;stroke-linejoin:round"></polyline><polyline points="472.06 310.89 479 301 473.65 301 473.65 289.93 469.2 289.93" style="fill:none;stroke:#263238;stroke-linecap:round;stroke-linejoin:round"></polyline><polyline points="465.75 289.93 462.58 289.93 462.58 301 457.24 301 468.12 316.49 470.05 313.74" style="fill:none;stroke:#263238;stroke-linecap:round;stroke-linejoin:round"></polyline><polyline points="111.9 120.17 115.65 120.17 115.65 109.1 121 109.1 110.12 93.61 99.24 109.1 104.58 109.1 104.58 120.17 109.04 120.17" style="fill:none;stroke:#263238;stroke-linecap:round;stroke-linejoin:round"></polyline><polygon points="205.38 80.75 187.95 55.93 170.51 80.75 179.08 80.75 179.08 98.48 196.81 98.48 196.81 80.75 205.38 80.75" style="fill:#4BAF95;stroke:#263238;stroke-linecap:round;stroke-linejoin:round"></polygon><polygon points="287.85 138.01 305.28 162.83 322.72 138.01 314.15 138.01 314.15 120.28 296.42 120.28 296.42 138.01 287.85 138.01" style="fill:#4BAF95;stroke:#263238;stroke-linecap:round;stroke-linejoin:round"></polygon></g></svg>